<svg width="221" height="194" viewBox="0 0 221 194" fill="none" xmlns="http://www.w3.org/2000/svg">
<path d="M27.4221 -1.84264C28.0613 -2.36964 28.1523 -3.31502 27.6253 -3.95421C27.0983 -4.5934 26.1529 -4.68436 25.5137 -4.15736L27.4221 -1.84264ZM1.60352 64.8863H0.103516V64.9394L0.107274 64.9924L1.60352 64.8863ZM26.4679 118.932L25.7513 120.25L26.4679 118.932ZM75.0456 120.716L75.9619 121.904L75.0456 120.716ZM80.3983 100.629L80.7449 99.1694L80.3983 100.629ZM39.3606 157.322L40.7102 156.667L39.3606 157.322ZM220.5 175.5L204.694 168.416L206.462 185.646L220.5 175.5ZM23.1172 -2.03345C22.5168 -1.46262 22.4929 -0.513174 23.0637 0.0871933C23.6345 0.68756 24.584 0.711502 25.1844 0.140668L23.1172 -2.03345ZM21.1191 4.54908C21.6415 3.90617 21.5439 2.96145 20.9009 2.439C20.258 1.91655 19.3133 2.01421 18.7909 2.65712L21.1191 4.54908ZM15.0677 7.80699C14.6189 8.50334 14.8197 9.43164 15.516 9.8804C16.2124 10.3292 17.1407 10.1284 17.5894 9.43208L15.0677 7.80699ZM14.5586 14.6699C14.9407 13.9348 14.6545 13.0292 13.9195 12.6472C13.1844 12.2651 12.2788 12.5513 11.8967 13.2864L14.5586 14.6699ZM9.21554 18.999C8.89263 19.7619 9.2493 20.6421 10.0122 20.965C10.7751 21.288 11.6553 20.9313 11.9782 20.1684L9.21554 18.999ZM9.79896 25.8573C10.0697 25.0744 9.65456 24.2202 8.87164 23.9494C8.08871 23.6787 7.23452 24.0938 6.96374 24.8768L9.79896 25.8573ZM5.08854 30.8724C4.86392 31.6698 5.32825 32.4983 6.12564 32.7229C6.92303 32.9475 7.75154 32.4832 7.97616 31.6858L5.08854 30.8724ZM6.47232 37.6161C6.65565 36.8082 6.14933 36.0047 5.34144 35.8214C4.53356 35.638 3.73002 36.1443 3.5467 36.9522L6.47232 37.6161ZM2.30509 43.0884C2.15934 43.9039 2.70228 44.6832 3.51779 44.8289C4.33329 44.9747 5.11254 44.4317 5.2583 43.6162L2.30509 43.0884ZM4.31044 49.6753C4.42104 48.8543 3.84514 48.099 3.02412 47.9884C2.20311 47.8778 1.44789 48.4537 1.3373 49.2747L4.31044 49.6753ZM0.63193 55.4884C0.555755 56.3133 1.16273 57.0438 1.98765 57.12C2.81256 57.1962 3.54304 56.5892 3.61922 55.7643L0.63193 55.4884ZM3.19213 61.8685C3.23005 61.0409 2.58993 60.3393 1.76237 60.3014C0.934811 60.2634 0.233197 60.9036 0.195272 61.7311L3.19213 61.8685ZM0.421297 68.1108C0.518568 68.9335 1.26435 69.5216 2.08705 69.4243C2.90974 69.3271 3.49782 68.5813 3.40055 67.7586L0.421297 68.1108ZM4.2705 73.7782C4.13208 72.9614 3.35773 72.4115 2.54095 72.5499C1.72417 72.6883 1.17425 73.4627 1.31268 74.2795L4.2705 73.7782ZM2.50093 80.4002C2.67848 81.2093 3.47839 81.7214 4.28756 81.5438C5.09674 81.3663 5.60877 80.5664 5.43122 79.7572L2.50093 80.4002ZM6.88738 85.6635C6.6676 84.8648 5.84192 84.3954 5.04318 84.6152C4.24444 84.835 3.7751 85.6607 3.99489 86.4594L6.88738 85.6635ZM5.83185 92.4388C6.09973 93.2227 6.95239 93.641 7.73631 93.3731C8.52023 93.1053 8.93856 92.2526 8.67068 91.4687L5.83185 92.4388ZM10.8268 97.1185C10.5023 96.3562 9.62142 96.0012 8.85916 96.3257C8.0969 96.6501 7.74195 97.531 8.06637 98.2933L10.8268 97.1185ZM10.7826 103.971C11.1751 104.701 12.0847 104.974 12.8142 104.582C13.5438 104.189 13.8171 103.28 13.4247 102.55L10.7826 103.971ZM16.5486 107.653C16.0737 106.974 15.1385 106.809 14.4597 107.284C13.7809 107.758 13.6156 108.694 14.0905 109.372L16.5486 107.653ZM18.1191 114.319C18.6915 114.918 19.641 114.939 20.2398 114.367C20.8386 113.795 20.86 112.845 20.2875 112.246L18.1191 114.319ZM24.7145 116.08C24.0363 115.604 23.1008 115.769 22.6251 116.447C22.1493 117.125 22.3134 118.06 22.9916 118.536L24.7145 116.08ZM28.6576 121.759C29.4001 122.126 30.2999 121.822 30.6673 121.08C31.0348 120.337 30.7308 119.437 29.9884 119.07L28.6576 121.759ZM35.7515 121.637C34.9812 121.332 34.1097 121.709 33.8049 122.48C33.5001 123.25 33.8775 124.122 34.6478 124.426L35.7515 121.637ZM40.8679 126.559C41.6637 126.789 42.4954 126.33 42.7254 125.534C42.9554 124.739 42.4967 123.907 41.7008 123.677L40.8679 126.559ZM47.8018 125.081C46.985 124.943 46.211 125.493 46.0732 126.31C45.9353 127.127 46.4858 127.901 47.3027 128.039L47.8018 125.081ZM53.9087 128.7C54.7368 128.722 55.4266 128.07 55.4495 127.242C55.4724 126.413 54.8196 125.724 53.9915 125.701L53.9087 128.7ZM60.1548 125.363C59.3348 125.481 58.7653 126.241 58.8829 127.061C59.0004 127.881 59.7605 128.451 60.5806 128.333L60.1548 125.363ZM67.1099 126.737C67.8906 126.46 68.299 125.602 68.022 124.822C67.745 124.041 66.8875 123.632 66.1068 123.909L67.1099 126.737ZM71.6121 121.271C70.9073 121.706 70.6888 122.631 71.1241 123.336C71.5594 124.04 72.4837 124.259 73.1885 123.824L71.6121 121.271ZM78.5476 119.601C79.1376 119.019 79.1445 118.07 78.563 117.48C77.9814 116.89 77.0317 116.883 76.4417 117.464L78.5476 119.601ZM80.5899 112.689C80.1007 113.357 80.2461 114.296 80.9147 114.785C81.5833 115.274 82.5219 115.129 83.011 114.46L80.5899 112.689ZM86.346 108.248C86.5854 107.455 86.1366 106.618 85.3435 106.379C84.5504 106.139 83.7134 106.588 83.474 107.381L86.346 108.248ZM82.5356 103.121C83.207 103.606 84.1447 103.455 84.63 102.784C85.1152 102.113 84.9643 101.175 84.2929 100.69L82.5356 103.121ZM77.8034 98.5796C76.9861 98.4447 76.2141 98.9979 76.0792 99.8153C75.9442 100.633 76.4975 101.405 77.3148 101.54L77.8034 98.5796ZM71.7347 100.982C72.5625 101.014 73.2589 100.368 73.2902 99.54C73.3215 98.7122 72.6758 98.0158 71.8479 97.9845L71.7347 100.982ZM65.8726 98.1128C65.0468 98.1792 64.4312 98.9025 64.4976 99.7282C64.564 100.554 65.2873 101.17 66.113 101.103L65.8726 98.1128ZM60.5479 101.884C61.3599 101.72 61.8851 100.929 61.7211 100.117C61.557 99.3045 60.7657 98.7793 59.9537 98.9434L60.5479 101.884ZM54.1693 100.497C53.3849 100.763 52.9648 101.615 53.2311 102.399C53.4974 103.184 54.3492 103.604 55.1336 103.337L54.1693 100.497ZM49.9872 105.497C50.7255 105.121 51.0195 104.218 50.6437 103.48C50.268 102.742 49.3649 102.448 48.6266 102.824L49.9872 105.497ZM43.481 105.988C42.8144 106.48 42.6728 107.419 43.1647 108.085C43.6566 108.752 44.5958 108.894 45.2623 108.402L43.481 105.988ZM41.1504 112.068C41.7129 111.459 41.6758 110.51 41.0676 109.948C40.4594 109.385 39.5104 109.422 38.9479 110.031L41.1504 112.068ZM35.2873 114.905C34.8613 115.615 35.0918 116.537 35.8023 116.963C36.5128 117.389 37.4341 117.158 37.8602 116.448L35.2873 114.905ZM35.5503 121.412C35.8206 120.629 35.4048 119.775 34.6217 119.504C33.8386 119.234 32.9847 119.65 32.7144 120.433L35.5503 121.412ZM31.3007 126.34C31.184 127.16 31.7542 127.92 32.5744 128.036C33.3945 128.153 34.154 127.583 34.2708 126.763L31.3007 126.34ZM33.953 132.298C33.9352 131.47 33.2494 130.813 32.4212 130.83C31.593 130.848 30.9359 131.534 30.9536 132.362L33.953 132.298ZM31.4955 138.34C31.6232 139.158 32.3903 139.718 33.2088 139.591C34.0274 139.463 34.5873 138.696 34.4596 137.877L31.4955 138.34ZM35.6357 143.382C35.4209 142.582 34.5982 142.107 33.7981 142.322C32.998 142.536 32.5235 143.359 32.7382 144.159L35.6357 143.382ZM34.5348 149.821C34.8184 150.599 35.6793 151 36.4577 150.717C37.2361 150.433 37.6371 149.572 37.3535 148.794L34.5348 149.821ZM39.4886 154.047C39.1505 153.291 38.2634 152.952 37.507 153.29C36.7507 153.628 36.4117 154.515 36.7498 155.271L39.4886 154.047ZM39.467 160.788C39.8673 161.514 40.7798 161.777 41.5051 161.377C42.2304 160.976 42.4937 160.064 42.0934 159.338L39.467 160.788ZM45.2327 164.36C44.7554 163.683 43.8196 163.521 43.1425 163.999C42.4654 164.476 42.3035 165.412 42.7808 166.089L45.2327 164.36ZM46.6727 170.991C47.2241 171.61 48.1723 171.664 48.7905 171.112C49.4088 170.561 49.463 169.613 48.9115 168.994L46.6727 170.991ZM53.0975 173.177C52.479 172.626 51.5308 172.681 50.9797 173.299C50.4285 173.918 50.4831 174.866 51.1015 175.417L53.0975 173.177ZM55.9968 179.313C56.6723 179.792 57.6087 179.633 58.0883 178.958C58.5679 178.283 58.4091 177.346 57.7337 176.867L55.9968 179.313ZM62.748 180.047C62.0268 179.639 61.1117 179.893 60.7041 180.614C60.2964 181.336 60.5505 182.251 61.2717 182.658L62.748 180.047ZM66.838 185.465C67.5941 185.804 68.4815 185.465 68.8202 184.709C69.1589 183.953 68.8205 183.066 68.0645 182.727L66.838 185.465ZM73.6123 184.935C72.8308 184.66 71.9745 185.071 71.6997 185.853C71.4249 186.634 71.8357 187.49 72.6172 187.765L73.6123 184.935ZM78.5453 189.604C79.3448 189.821 80.1689 189.349 80.3859 188.549C80.6029 187.75 80.1307 186.926 79.3312 186.709L78.5453 189.604ZM85.1728 188.091C84.3611 187.926 83.5689 188.45 83.4034 189.261C83.2379 190.073 83.7618 190.865 84.5735 191.031L85.1728 188.091ZM90.6659 192.093C91.4856 192.213 92.2473 191.645 92.3673 190.826C92.4872 190.006 91.9199 189.244 91.1002 189.124L90.6659 192.093ZM97.0854 189.848C96.2608 189.768 95.5277 190.372 95.448 191.196C95.3682 192.021 95.972 192.754 96.7966 192.834L97.0854 189.848ZM102.947 193.293C103.774 193.338 104.481 192.703 104.525 191.876C104.569 191.048 103.935 190.342 103.108 190.297L102.947 193.293ZM109.15 190.505C108.322 190.492 107.64 191.153 107.627 191.981C107.614 192.809 108.275 193.491 109.103 193.504L109.15 190.505ZM115.247 193.497C116.075 193.483 116.735 192.8 116.721 191.971C116.706 191.143 116.023 190.483 115.195 190.498L115.247 193.497ZM121.245 190.301C120.417 190.34 119.778 191.042 119.817 191.87C119.856 192.697 120.558 193.337 121.386 193.298L121.245 190.301ZM127.514 192.927C128.34 192.866 128.961 192.147 128.9 191.321C128.84 190.495 128.121 189.874 127.294 189.935L127.514 192.927ZM133.339 189.419C132.514 189.499 131.911 190.232 131.991 191.057C132.071 191.881 132.804 192.485 133.629 192.405L133.339 189.419ZM139.726 191.747C140.549 191.65 141.137 190.904 141.04 190.082C140.943 189.259 140.197 188.671 139.374 188.768L139.726 191.747ZM145.397 187.998C144.576 188.111 144.002 188.867 144.115 189.688C144.227 190.509 144.984 191.083 145.805 190.97L145.397 187.998ZM151.862 190.088C152.681 189.962 153.242 189.196 153.116 188.377C152.99 187.558 152.224 186.997 151.405 187.123L151.862 190.088ZM157.403 186.153C156.586 186.291 156.036 187.065 156.174 187.882C156.312 188.699 157.087 189.249 157.903 189.111L157.403 186.153ZM163.935 188.05C164.75 187.902 165.29 187.12 165.142 186.305C164.993 185.49 164.212 184.95 163.397 185.099L163.935 188.05ZM169.381 183.973C168.567 184.131 168.036 184.918 168.193 185.731C168.351 186.544 169.138 187.076 169.951 186.918L169.381 183.973ZM175.952 185.727C176.764 185.562 177.289 184.77 177.124 183.958C176.959 183.146 176.167 182.622 175.355 182.787L175.952 185.727ZM181.322 181.552C180.511 181.723 179.992 182.518 180.163 183.329C180.333 184.139 181.129 184.658 181.94 184.488L181.322 181.552ZM187.915 183.215C188.725 183.04 189.24 182.243 189.066 181.433C188.891 180.623 188.094 180.108 187.284 180.282L187.915 183.215ZM193.243 178.993C192.434 179.168 191.919 179.967 192.095 180.777C192.27 181.586 193.069 182.1 193.879 181.925L193.243 178.993ZM199.828 180.641C200.639 180.468 201.155 179.671 200.982 178.861C200.808 178.05 200.011 177.534 199.201 177.707L199.828 180.641ZM205.166 176.457C204.354 176.622 203.83 177.415 203.996 178.226C204.161 179.038 204.954 179.562 205.765 179.396L205.166 176.457ZM211.767 178.233C212.582 178.085 213.123 177.305 212.976 176.49C212.829 175.674 212.048 175.133 211.233 175.28L211.767 178.233ZM217.282 174.323C216.46 174.428 215.879 175.179 215.985 176.001C216.09 176.823 216.841 177.404 217.663 177.299L217.282 174.323ZM25.5137 -4.15736C24.6879 -3.47652 23.8894 -2.76765 23.1172 -2.03345L25.1844 0.140668C25.9068 -0.546283 26.6525 -1.20812 27.4221 -1.84264L25.5137 -4.15736ZM18.7909 2.65712C17.455 4.30101 16.2163 6.02459 15.0677 7.80699L17.5894 9.43208C18.6833 7.73469 19.8579 6.10104 21.1191 4.54908L18.7909 2.65712ZM11.8967 13.2864C10.9241 15.1576 10.0327 17.0684 9.21554 18.999L11.9782 20.1684C12.7672 18.3044 13.6254 16.4654 14.5586 14.6699L11.8967 13.2864ZM6.96374 24.8768C6.27063 26.8808 5.64797 28.8864 5.08854 30.8724L7.97616 31.6858C8.52106 29.7514 9.12645 27.8018 9.79896 25.8573L6.96374 24.8768ZM3.5467 36.9522C3.06963 39.0546 2.65885 41.1091 2.30509 43.0884L5.2583 43.6162C5.60457 41.6788 6.00631 39.6698 6.47232 37.6161L3.5467 36.9522ZM1.3373 49.2747C1.03343 51.5304 0.804471 53.62 0.63193 55.4884L3.61922 55.7643C3.78827 53.9336 4.01265 51.8859 4.31044 49.6753L1.3373 49.2747ZM0.195272 61.7311C0.149587 62.728 0.12665 63.5118 0.115133 64.0488C0.109375 64.3173 0.10647 64.5242 0.105006 64.6652C0.104273 64.7356 0.103901 64.7897 0.103711 64.8267C0.103617 64.8452 0.103568 64.8595 0.103542 64.8694C0.10353 64.8744 0.103523 64.8783 0.10352 64.8811C0.103518 64.8825 0.103517 64.8837 0.103516 64.8845C0.103516 64.8849 0.103516 64.8853 0.103516 64.8856C0.103516 64.8857 0.103516 64.8859 0.103516 64.886C0.103516 64.8861 0.103516 64.8861 0.103516 64.8862C0.103516 64.8862 0.103516 64.8863 1.60352 64.8863C3.10352 64.8863 3.10352 64.8863 3.10352 64.8864C3.10352 64.8864 3.10352 64.8864 3.10352 64.8865C3.10352 64.8865 3.10352 64.8865 3.10352 64.8866C3.10352 64.8866 3.10352 64.8865 3.10352 64.8864C3.10352 64.8862 3.10352 64.8857 3.10352 64.8849C3.10352 64.8834 3.10352 64.8807 3.10353 64.877C3.10355 64.8697 3.10359 64.858 3.10367 64.842C3.10383 64.8102 3.10417 64.7615 3.10484 64.6963C3.1062 64.5661 3.10893 64.3703 3.11444 64.1132C3.12547 63.5989 3.14763 62.8394 3.19213 61.8685L0.195272 61.7311ZM1.60352 64.8863C0.107274 64.9924 0.107279 64.9925 0.107284 64.9925C0.107286 64.9926 0.107291 64.9926 0.107295 64.9927C0.107303 64.9928 0.107312 64.9929 0.107323 64.9931C0.107344 64.9934 0.10737 64.9937 0.107401 64.9942C0.107462 64.995 0.107544 64.9962 0.107646 64.9976C0.107849 65.0004 0.108132 65.0043 0.108499 65.0093C0.109231 65.0192 0.110293 65.0335 0.111701 65.052C0.114519 65.0891 0.118724 65.143 0.124451 65.2133C0.135905 65.3539 0.15345 65.5599 0.178169 65.8262C0.227604 66.3589 0.305755 67.1336 0.421297 68.1108L3.40055 67.7586C3.28818 66.8082 3.21262 66.0586 3.16533 65.549C3.14169 65.2943 3.12512 65.0995 3.11454 64.9697C3.10926 64.9048 3.10547 64.8562 3.10305 64.8244C3.10184 64.8085 3.10097 64.7968 3.10043 64.7894C3.10016 64.7857 3.09997 64.7831 3.09986 64.7815C3.0998 64.7808 3.09976 64.7803 3.09975 64.78C3.09974 64.7799 3.09974 64.7799 3.09974 64.7799C3.09974 64.7799 3.09974 64.7799 3.09974 64.78C3.09975 64.78 3.09975 64.78 3.09975 64.7801C3.09975 64.7801 3.09976 64.7802 1.60352 64.8863ZM1.31268 74.2795C1.62747 76.137 2.01833 78.2007 2.50093 80.4002L5.43122 79.7572C4.96005 77.6099 4.57818 75.5937 4.2705 73.7782L1.31268 74.2795ZM3.99489 86.4594C4.53276 88.4142 5.14212 90.4204 5.83185 92.4388L8.67068 91.4687C8.00266 89.5138 7.41091 87.5661 6.88738 85.6635L3.99489 86.4594ZM8.06637 98.2933C8.88574 100.219 9.7884 102.123 10.7826 103.971L13.4247 102.55C12.4785 100.791 11.6147 98.9699 10.8268 97.1185L8.06637 98.2933ZM14.0905 109.372C15.3199 111.13 16.6594 112.793 18.1191 114.319L20.2875 112.246C18.9456 110.843 17.7014 109.3 16.5486 107.653L14.0905 109.372ZM22.9916 118.536C23.8764 119.157 24.7959 119.73 25.7513 120.25L27.1845 117.614C26.333 117.151 25.51 116.638 24.7145 116.08L22.9916 118.536ZM25.7513 120.25C26.7014 120.766 27.671 121.27 28.6576 121.759L29.9884 119.07C29.0371 118.599 28.1016 118.113 27.1845 117.614L25.7513 120.25ZM34.6478 124.426C36.6789 125.23 38.7584 125.949 40.8679 126.559L41.7008 123.677C39.6904 123.096 37.7013 122.408 35.7515 121.637L34.6478 124.426ZM47.3027 128.039C49.4961 128.409 51.7048 128.639 53.9087 128.7L53.9915 125.701C51.9401 125.644 49.8709 125.43 47.8018 125.081L47.3027 128.039ZM60.5806 128.333C62.7912 128.016 64.9753 127.494 67.1099 126.737L66.1068 123.909C64.1714 124.596 62.1816 125.073 60.1548 125.363L60.5806 128.333ZM73.1885 123.824C74.131 123.242 75.0562 122.602 75.9619 121.904L74.1292 119.528C73.3057 120.164 72.466 120.744 71.6121 121.271L73.1885 123.824ZM75.9619 121.904C76.6793 121.35 77.5811 120.553 78.5476 119.601L76.4417 117.464C75.5341 118.359 74.7246 119.069 74.1292 119.528L75.9619 121.904ZM83.011 114.46C84.4322 112.518 85.7104 110.354 86.346 108.248L83.474 107.381C82.9789 109.022 81.9209 110.87 80.5899 112.689L83.011 114.46ZM84.2929 100.69C83.3493 100.008 82.1626 99.5061 80.7449 99.1694L80.0517 102.088C81.1955 102.36 81.9913 102.728 82.5356 103.121L84.2929 100.69ZM80.7449 99.1694C79.7837 98.9412 78.8018 98.7444 77.8034 98.5796L77.3148 101.54C78.2466 101.693 79.1603 101.877 80.0517 102.088L80.7449 99.1694ZM71.8479 97.9845C69.8791 97.9101 67.878 97.9516 65.8726 98.1128L66.113 101.103C68.0009 100.951 69.884 100.912 71.7347 100.982L71.8479 97.9845ZM59.9537 98.9434C57.9965 99.3389 56.0593 99.855 54.1693 100.497L55.1336 103.337C56.897 102.739 58.7103 102.255 60.5479 101.884L59.9537 98.9434ZM48.6266 102.824C46.8256 103.74 45.1003 104.793 43.481 105.988L45.2623 108.402C46.74 107.311 48.3234 106.344 49.9872 105.497L48.6266 102.824ZM38.9479 110.031C37.5803 111.509 36.35 113.133 35.2873 114.905L37.8602 116.448C38.8126 114.859 39.9175 113.401 41.1504 112.068L38.9479 110.031ZM32.7144 120.433C32.0753 122.285 31.5977 124.253 31.3007 126.34L34.2708 126.763C34.5415 124.861 34.9751 123.078 35.5503 121.412L32.7144 120.433ZM30.9536 132.362C30.9946 134.274 31.1718 136.266 31.4955 138.34L34.4596 137.877C34.1554 135.928 33.9909 134.069 33.953 132.298L30.9536 132.362ZM32.7382 144.159C33.2295 145.99 33.8265 147.877 34.5348 149.821L37.3535 148.794C36.6733 146.927 36.1031 145.123 35.6357 143.382L32.7382 144.159ZM36.7498 155.271C37.1479 156.162 37.5681 157.064 38.011 157.977L40.7102 156.667C40.2806 155.782 39.8736 154.908 39.4886 154.047L36.7498 155.271ZM38.011 157.977C38.4767 158.937 38.9622 159.874 39.467 160.788L42.0934 159.338C41.6144 158.471 41.1531 157.581 40.7102 156.667L38.011 157.977ZM42.7808 166.089C44.0008 167.819 45.2998 169.452 46.6727 170.991L48.9115 168.994C47.6146 167.54 46.3867 165.997 45.2327 164.36L42.7808 166.089ZM51.1015 175.417C52.6643 176.81 54.2981 178.107 55.9968 179.313L57.7337 176.867C56.1224 175.723 54.5753 174.494 53.0975 173.177L51.1015 175.417ZM61.2717 182.658C63.0724 183.676 64.9299 184.61 66.838 185.465L68.0645 182.727C66.2374 181.909 64.4636 181.017 62.748 180.047L61.2717 182.658ZM72.6172 187.765C74.5529 188.446 76.5307 189.057 78.5453 189.604L79.3312 186.709C77.3831 186.18 75.4752 185.59 73.6123 184.935L72.6172 187.765ZM84.5735 191.031C86.5761 191.439 88.6084 191.792 90.6659 192.093L91.1002 189.124C89.0947 188.831 87.1175 188.488 85.1728 188.091L84.5735 191.031ZM96.7966 192.834C98.8283 193.03 100.88 193.182 102.947 193.293L103.108 190.297C101.081 190.189 99.0721 190.04 97.0854 189.848L96.7966 192.834ZM109.103 193.504C111.141 193.537 113.19 193.533 115.247 193.497L115.195 190.498C113.169 190.533 111.153 190.537 109.15 190.505L109.103 193.504ZM121.386 193.298C123.426 193.202 125.47 193.077 127.514 192.927L127.294 189.935C125.275 190.083 123.257 190.206 121.245 190.301L121.386 193.298ZM133.629 192.405C135.665 192.207 137.699 191.987 139.726 191.747L139.374 188.768C137.366 189.005 135.353 189.223 133.339 189.419L133.629 192.405ZM145.805 190.97C147.835 190.692 149.855 190.397 151.862 190.088L151.405 187.123C149.413 187.429 147.41 187.722 145.397 187.998L145.805 190.97ZM157.903 189.111C159.933 188.767 161.945 188.413 163.935 188.05L163.397 185.099C161.419 185.459 159.419 185.812 157.403 186.153L157.903 189.111ZM169.951 186.918C171.981 186.525 173.983 186.127 175.952 185.727L175.355 182.787C173.394 183.185 171.401 183.582 169.381 183.973L169.951 186.918ZM181.94 184.488C183.976 184.059 185.97 183.633 187.915 183.215L187.284 180.282C185.341 180.7 183.352 181.125 181.322 181.552L181.94 184.488ZM193.879 181.925C195.933 181.48 197.918 181.05 199.828 180.641L199.201 177.707C197.286 178.117 195.297 178.548 193.243 178.993L193.879 181.925ZM205.765 179.396C207.899 178.961 209.904 178.569 211.767 178.233L211.233 175.28C209.342 175.623 207.314 176.019 205.166 176.457L205.765 179.396Z" fill="#90C6FF"/>
</svg>
