<svg width="692" height="660" viewBox="0 0 692 660" fill="none" xmlns="http://www.w3.org/2000/svg">
<g opacity="0.95">
<g clip-path="url(#clip0_5_169)">
<rect x="16" width="660" height="660" fill="black"/>
<rect x="16.3299" y="0.329773" width="659.67" height="659.67" fill="black"/>
<rect x="16" width="109.835" height="109.835" stroke="#4ADE80" stroke-width="0.335025"/>
<rect x="16" y="219.67" width="109.835" height="109.835" stroke="#4ADE80" stroke-width="0.335025"/>
<rect x="16" y="439.34" width="109.835" height="109.835" stroke="#4ADE80" stroke-width="0.335025"/>
<rect x="236.33" y="440" width="109.835" height="109.835" stroke="#4ADE80" stroke-width="0.335025"/>
<rect x="236.33" y="219.67" width="109.835" height="109.835" stroke="#4ADE80" stroke-width="0.335025"/>
<rect x="125.835" width="109.835" height="109.835" stroke="#4ADE80" stroke-width="0.335025"/>
<rect x="125.835" y="219.67" width="109.835" height="109.835" stroke="#4ADE80" stroke-width="0.335025"/>
<rect x="125.835" y="439.34" width="109.835" height="109.835" stroke="#4ADE80" stroke-width="0.335025"/>
<rect x="346.165" y="440" width="109.835" height="109.835" stroke="#4ADE80" stroke-width="0.335025"/>
<rect x="346.165" y="219.67" width="109.835" height="109.835" stroke="#4ADE80" stroke-width="0.335025"/>
<rect x="345.505" width="109.835" height="109.835" stroke="#4ADE80" stroke-width="0.335025"/>
<rect x="235.67" width="109.835" height="109.835" stroke="#4ADE80" stroke-width="0.335025"/>
<rect x="565.175" width="109.835" height="109.835" stroke="#4ADE80" stroke-width="0.335025"/>
<rect x="455.34" width="109.835" height="109.835" stroke="#4ADE80" stroke-width="0.335025"/>
<rect x="565.175" y="220" width="109.835" height="109.835" stroke="#4ADE80" stroke-width="0.335025"/>
<rect x="565.175" y="439.67" width="109.835" height="109.835" stroke="#4ADE80" stroke-width="0.335025"/>
<rect x="125.835" y="109.835" width="109.835" height="109.835" stroke="#4ADE80" stroke-width="0.335025"/>
<rect x="125.835" y="329.505" width="109.835" height="109.835" stroke="#4ADE80" stroke-width="0.335025"/>
<rect x="125.835" y="549.835" width="109.835" height="109.835" stroke="#4ADE80" stroke-width="0.335025"/>
<rect x="346.165" y="549.835" width="109.835" height="109.835" stroke="#4ADE80" stroke-width="0.335025"/>
<rect x="346.165" y="329.505" width="109.835" height="109.835" stroke="#4ADE80" stroke-width="0.335025"/>
<rect x="345.505" y="109.835" width="109.835" height="109.835" stroke="#4ADE80" stroke-width="0.335025"/>
<rect x="565.175" y="109.835" width="109.835" height="109.835" stroke="#4ADE80" stroke-width="0.335025"/>
<rect x="565.175" y="329.835" width="109.835" height="109.835" stroke="#4ADE80" stroke-width="0.335025"/>
<rect x="565.175" y="549.505" width="109.835" height="109.835" stroke="#4ADE80" stroke-width="0.335025"/>
<rect x="16" y="109.835" width="109.835" height="109.835" stroke="#4ADE80" stroke-width="0.335025"/>
<rect x="16" y="329.505" width="109.835" height="109.835" stroke="#4ADE80" stroke-width="0.335025"/>
<rect x="16" y="549.835" width="109.835" height="109.835" stroke="#4ADE80" stroke-width="0.335025"/>
<rect x="236.33" y="549.835" width="109.835" height="109.835" stroke="#4ADE80" stroke-width="0.335025"/>
<rect x="236.33" y="329.505" width="109.835" height="109.835" stroke="#4ADE80" stroke-width="0.335025"/>
<rect x="235.67" y="109.835" width="109.835" height="109.835" stroke="#4ADE80" stroke-width="0.335025"/>
<rect x="455.34" y="109.835" width="109.835" height="109.835" stroke="#4ADE80" stroke-width="0.335025"/>
<rect x="455.34" y="220" width="109.835" height="109.835" stroke="#4ADE80" stroke-width="0.335025"/>
<rect x="455.34" y="440" width="109.835" height="109.835" stroke="#4ADE80" stroke-width="0.335025"/>
<rect x="455.34" y="329.835" width="109.835" height="109.835" stroke="#4ADE80" stroke-width="0.335025"/>
<rect x="455.34" y="549.505" width="109.835" height="109.835" stroke="#4ADE80" stroke-width="0.335025"/>
<rect x="236.33" y="219.67" width="54.4228" height="54.4228" stroke="#4ADE80" stroke-width="0.335025"/>
<rect x="236.33" y="219.67" width="54.4228" height="54.4228" stroke="#4ADE80" stroke-width="0.335025"/>
<rect x="236.33" y="329.835" width="54.4228" height="54.4228" stroke="#4ADE80" stroke-width="0.335025"/>
<rect x="345.505" y="219.67" width="54.4228" height="54.4228" stroke="#4ADE80" stroke-width="0.335025"/>
<rect x="291.412" y="274.093" width="54.4228" height="54.4228" stroke="#4ADE80" stroke-width="0.335025"/>
<rect x="290.753" y="384.918" width="54.4228" height="54.4228" stroke="#4ADE80" stroke-width="0.335025"/>
<rect x="399.928" y="274.093" width="54.4228" height="54.4228" stroke="#4ADE80" stroke-width="0.335025"/>
<rect x="290.753" y="219.67" width="54.4228" height="54.4228" stroke="#4ADE80" stroke-width="0.335025"/>
<rect x="291.742" y="329.835" width="54.4228" height="54.4228" stroke="#4ADE80" stroke-width="0.335025"/>
<rect x="399.928" y="219.67" width="54.4228" height="54.4228" stroke="#4ADE80" stroke-width="0.335025"/>
<rect x="346.165" y="330.165" width="54.4228" height="54.4228" stroke="#4ADE80" stroke-width="0.335025"/>
<rect x="400.588" y="329.945" width="54.4228" height="54.4228" stroke="#4ADE80" stroke-width="0.335025"/>
<rect x="400.588" y="385.908" width="54.4228" height="54.4228" stroke="#4ADE80" stroke-width="0.335025"/>
<rect x="346.165" y="384.588" width="54.4228" height="54.4228" stroke="#4ADE80" stroke-width="0.335025"/>
<circle cx="346.165" cy="329.835" r="329.835" stroke="#4ADE80" stroke-width="0.447761"/>
<circle cx="346.165" cy="165.247" r="164.918" stroke="#4ADE80" stroke-width="0.447761"/>
<circle cx="346.165" cy="495.082" r="164.918" stroke="#4ADE80" stroke-width="0.447761"/>
<circle cx="510.093" cy="330.165" r="164.918" stroke="#4ADE80" stroke-width="0.447761"/>
<circle cx="181.247" cy="330.165" r="164.918" stroke="#4ADE80" stroke-width="0.447761"/>
</g>
<rect x="16.2239" y="0.223881" width="659.552" height="659.552" stroke="#65B741" stroke-width="0.447761"/>
</g>
<g filter="url(#filter0_f_5_169)">
<path d="M122.673 390.588C122.673 358.816 148.496 333.059 180.349 333.059L229.374 333.059L229.374 381.959C229.374 413.732 203.552 439.489 171.698 439.489L122.673 439.489L122.673 390.588Z" stroke="url(#paint0_linear_5_169)" stroke-width="3.25806"/>
</g>
<g filter="url(#filter1_f_5_169)">
<path d="M281.408 104.451C313.1 104.451 338.791 130.208 338.791 161.981L338.791 210.881L290.015 210.881C258.324 210.881 232.632 185.124 232.632 153.352L232.632 104.451L281.408 104.451Z" stroke="url(#paint1_linear_5_169)" stroke-width="3.25806"/>
</g>
<g filter="url(#filter2_f_5_169)">
<path d="M409.896 550.806C378.123 550.806 352.366 525.114 352.366 493.423L352.366 444.647L401.266 444.647C433.039 444.647 458.796 470.338 458.796 502.03L458.796 550.806L409.896 550.806Z" stroke="url(#paint2_linear_5_169)" stroke-width="3.25806"/>
</g>
<g filter="url(#filter3_f_5_169)">
<path d="M519.584 437.045C487.811 437.045 462.054 411.354 462.054 379.662L462.054 330.887L510.954 330.887C542.727 330.887 568.484 356.578 568.484 388.27L568.484 437.045L519.584 437.045Z" stroke="url(#paint3_linear_5_169)" stroke-width="3.25806"/>
</g>
<g filter="url(#filter4_f_5_169)">
<path d="M171.698 213.325C203.552 213.325 229.374 239.016 229.374 270.708L229.374 319.483L180.349 319.483C148.496 319.483 122.673 293.792 122.673 262.1L122.673 213.325L171.698 213.325Z" stroke="url(#paint4_linear_5_169)" stroke-width="3.25806"/>
</g>
<g filter="url(#filter5_f_5_169)">
<path d="M458.796 153.352C458.796 185.124 433.039 210.881 401.266 210.881L356.71 210.881C354.311 210.881 352.366 208.936 352.366 206.537L352.366 161.981C352.366 130.208 378.123 104.451 409.896 104.451L454.452 104.451C456.851 104.451 458.796 106.396 458.796 108.795L458.796 153.352Z" stroke="url(#paint5_linear_5_169)" stroke-width="3.25806" stroke-linejoin="round"/>
</g>
<g filter="url(#filter6_f_5_169)">
<path d="M568.484 262.1C568.484 293.792 542.727 319.483 510.954 319.483L466.398 319.483C463.999 319.483 462.054 317.538 462.054 315.139L462.054 270.708C462.054 239.016 487.811 213.325 519.584 213.325L564.14 213.325C566.539 213.325 568.484 215.27 568.484 217.669L568.484 262.1Z" stroke="url(#paint6_linear_5_169)" stroke-width="3.25806" stroke-linejoin="round"/>
</g>
<g filter="url(#filter7_f_5_169)">
<path d="M232.632 502.03C232.632 470.338 258.324 444.647 290.015 444.647L338.791 444.647L338.791 493.423C338.791 525.114 313.1 550.806 281.408 550.806L232.632 550.806L232.632 502.03Z" stroke="url(#paint7_linear_5_169)" stroke-width="3.25806"/>
</g>
<g filter="url(#filter8_f_5_169)">
<path d="M195.218 210.811C193.43 211.24 191.82 209.63 192.248 207.842L195.838 192.857C195.929 192.48 195.929 192.087 195.838 191.709L192.248 176.725C191.82 174.937 193.43 173.327 195.218 173.755L210.202 177.345C210.58 177.436 210.973 177.436 211.35 177.345L226.335 173.755C228.123 173.327 229.733 174.937 229.305 176.725L225.714 191.709C225.624 192.087 225.624 192.48 225.714 192.857L229.305 207.842C229.733 209.63 228.123 211.24 226.335 210.811L211.35 207.221C210.973 207.131 210.58 207.131 210.202 207.221L195.218 210.811Z" stroke="url(#paint8_linear_5_169)" stroke-width="3.25806"/>
</g>
<g filter="url(#filter9_f_5_169)">
<path d="M462.124 176.725C461.696 174.937 463.306 173.327 465.094 173.755L480.078 177.345C480.455 177.436 480.849 177.436 481.226 177.345L496.211 173.755C497.999 173.327 499.609 174.937 499.18 176.725L495.59 191.709C495.5 192.087 495.5 192.48 495.59 192.857L499.18 207.842C499.609 209.63 497.999 211.24 496.211 210.811L481.226 207.221C480.849 207.131 480.455 207.131 480.078 207.221L465.094 210.811C463.306 211.24 461.696 209.63 462.124 207.842L465.714 192.857C465.805 192.48 465.805 192.087 465.714 191.709L462.124 176.725Z" stroke="url(#paint9_linear_5_169)" stroke-width="3.25806"/>
</g>
<g filter="url(#filter10_f_5_169)">
<path d="M195.218 442.273C193.43 441.845 191.82 443.455 192.248 445.243L195.838 460.228C195.929 460.605 195.929 460.998 195.838 461.376L192.248 476.36C191.82 478.148 193.43 479.758 195.218 479.33L210.202 475.74C210.58 475.649 210.973 475.649 211.35 475.74L226.335 479.33C228.123 479.758 229.733 478.148 229.305 476.36L225.714 461.376C225.624 460.998 225.624 460.605 225.714 460.228L229.305 445.243C229.733 443.455 228.123 441.845 226.335 442.273L211.35 445.864C210.973 445.954 210.58 445.954 210.202 445.864L195.218 442.273Z" stroke="url(#paint10_linear_5_169)" stroke-width="3.25806"/>
</g>
<g filter="url(#filter11_f_5_169)">
<path d="M462.124 476.36C461.696 478.148 463.306 479.758 465.094 479.33L480.078 475.74C480.455 475.649 480.849 475.649 481.226 475.74L496.211 479.33C497.999 479.758 499.609 478.148 499.18 476.36L495.59 461.376C495.5 460.998 495.5 460.605 495.59 460.228L499.18 445.243C499.609 443.455 497.999 441.845 496.211 442.273L481.226 445.864C480.849 445.954 480.455 445.954 480.078 445.864L465.094 442.273C463.306 441.845 461.696 443.455 462.124 445.243L465.714 460.228C465.805 460.605 465.805 460.998 465.714 461.376L462.124 476.36Z" stroke="url(#paint11_linear_5_169)" stroke-width="3.25806"/>
</g>
<g filter="url(#filter12_f_5_169)">
<path d="M443.78 270.396C444.291 272.529 442.37 274.449 440.238 273.938L422.916 269.788C422.128 269.599 421.297 269.744 420.62 270.188L382.189 295.399C379.523 297.147 376.372 293.995 378.12 291.33L403.333 252.9C403.777 252.223 403.922 251.392 403.733 250.604L399.583 233.281C399.072 231.149 400.993 229.228 403.125 229.739L420.997 234.021C421.447 234.129 421.916 234.129 422.366 234.021L440.238 229.739C442.37 229.228 444.291 231.149 443.78 233.281L439.498 251.154C439.39 251.604 439.39 252.073 439.498 252.523L443.78 270.396Z" stroke="url(#paint12_linear_5_169)" stroke-width="3.25806"/>
</g>
<g filter="url(#filter13_f_5_169)">
<path d="M290.749 229.739C292.882 229.23 294.802 231.143 294.291 233.266L290.141 250.517C289.952 251.302 290.097 252.129 290.541 252.804L315.752 291.078C317.5 293.732 314.348 296.871 311.683 295.129L273.253 270.021C272.576 269.578 271.745 269.433 270.957 269.622L253.634 273.755C251.502 274.264 249.581 272.351 250.092 270.227L254.374 252.429C254.482 251.98 254.482 251.513 254.374 251.065L250.092 233.266C249.581 231.143 251.502 229.23 253.634 229.739L271.507 234.003C271.957 234.111 272.426 234.111 272.876 234.003L290.749 229.739Z" stroke="url(#paint13_linear_5_169)" stroke-width="3.25806"/>
</g>
<g filter="url(#filter14_f_5_169)">
<path d="M402.956 425.871C400.815 426.382 398.886 424.461 399.399 422.328L403.567 405.007C403.756 404.219 403.611 403.388 403.165 402.71L377.851 364.279C376.095 361.614 379.26 358.462 381.936 360.211L420.523 385.423C421.204 385.868 422.038 386.013 422.829 385.824L440.223 381.674C442.364 381.163 444.293 383.083 443.78 385.216L439.48 403.087C439.371 403.538 439.371 404.007 439.48 404.457L443.78 422.328C444.293 424.461 442.364 426.382 440.223 425.871L422.277 421.589C421.825 421.481 421.354 421.481 420.902 421.589L402.956 425.871Z" stroke="url(#paint14_linear_5_169)" stroke-width="3.25806"/>
</g>
<g filter="url(#filter15_f_5_169)">
<path d="M249.821 385.214C249.308 383.081 251.236 381.161 253.378 381.672L270.77 385.822C271.561 386.011 272.396 385.866 273.076 385.421L311.664 360.211C314.341 358.462 317.505 361.614 315.75 364.28L290.434 402.709C289.988 403.387 289.842 404.218 290.032 405.006L294.199 422.328C294.712 424.461 292.784 426.382 290.642 425.871L272.697 421.588C272.246 421.48 271.774 421.48 271.323 421.588L253.378 425.871C251.236 426.382 249.308 424.461 249.821 422.328L254.121 404.456C254.229 404.006 254.229 403.536 254.121 403.086L249.821 385.214Z" stroke="url(#paint15_linear_5_169)" stroke-width="3.25806"/>
</g>
<path fill-rule="evenodd" clip-rule="evenodd" d="M64.5709 281.785C89.9121 281.785 110.455 302.389 110.455 327.805C110.455 353.221 89.9121 373.825 64.5709 373.825C39.2297 373.825 18.6866 353.221 18.6866 327.805C18.6866 302.389 39.2297 281.785 64.5709 281.785ZM96.5636 327.805C96.5636 310.084 82.24 295.718 64.5709 295.718C46.9018 295.718 32.5782 310.084 32.5782 327.805C32.5782 345.526 46.9018 359.892 64.5709 359.892C82.24 359.892 96.5636 345.526 96.5636 327.805Z" stroke="url(#paint16_linear_5_169)" stroke-width="3.25806"/>
<g opacity="0.9" filter="url(#filter16_f_5_169)">
<path d="M327.408 559.211C338.263 548.356 355.862 548.356 366.717 559.211M318.874 550.677C303.305 566.245 303.305 591.486 318.874 607.055C334.442 622.623 359.683 622.623 375.251 607.055C390.82 591.486 390.82 566.245 375.251 550.677C359.683 535.109 334.442 535.109 318.874 550.677Z" stroke="url(#paint17_linear_5_169)" stroke-width="3.25806" stroke-linecap="round"/>
</g>
<g filter="url(#filter17_f_5_169)">
<path d="M327.408 96.6294C338.263 107.484 355.862 107.484 366.717 96.6294M318.873 48.7859C303.305 64.3542 303.305 89.5953 318.873 105.164C334.442 120.732 359.683 120.732 375.251 105.164C390.82 89.5953 390.82 64.3542 375.251 48.7859C359.683 33.2176 334.442 33.2176 318.873 48.7859Z" stroke="url(#paint18_linear_5_169)" stroke-width="3.25806" stroke-linecap="round"/>
</g>
<g filter="url(#filter18_f_5_169)">
<path d="M605.816 102.822C587.597 102.822 572.828 88.114 572.828 69.9703V69.9703C572.828 51.8266 587.597 37.1182 605.816 37.1182V37.1182C624.035 37.1182 638.804 51.8266 638.804 69.9703V69.9703C638.804 88.114 624.035 102.822 605.816 102.822V102.822Z" stroke="url(#paint19_linear_5_169)" stroke-width="3.25806"/>
</g>
<g filter="url(#filter19_f_5_169)">
<path d="M607.852 620.854C589.709 620.854 575 606.084 575 587.866C575 569.647 589.709 554.878 607.852 554.878C625.996 554.878 640.704 569.647 640.704 587.866C640.704 606.084 625.996 620.854 607.852 620.854Z" stroke="url(#paint20_linear_5_169)" stroke-width="3.25806"/>
</g>
<g filter="url(#filter20_f_5_169)">
<path d="M86.2913 620.854C68.1476 620.854 53.4392 606.084 53.4392 587.866V587.866C53.4392 569.647 68.1476 554.878 86.2913 554.878V554.878C104.435 554.878 119.143 569.647 119.143 587.866V587.866C119.143 606.084 104.435 620.854 86.2913 620.854V620.854Z" stroke="url(#paint21_linear_5_169)" stroke-width="3.25806"/>
</g>
<g filter="url(#filter21_f_5_169)">
<path d="M86.2913 100.65C68.1476 100.65 53.4392 85.8811 53.4392 67.6625V67.6625C53.4392 49.4438 68.1476 34.6746 86.2913 34.6746V34.6746C104.435 34.6746 119.143 49.4438 119.143 67.6624V67.6624C119.143 85.8811 104.435 100.65 86.2913 100.65V100.65Z" stroke="url(#paint22_linear_5_169)" stroke-width="3.25806"/>
</g>
<g filter="url(#filter22_f_5_169)">
<path fill-rule="evenodd" clip-rule="evenodd" d="M629.98 281.785C655.396 281.785 676 302.389 676 327.805C676 353.221 655.396 373.825 629.98 373.825C604.564 373.825 583.96 353.221 583.96 327.805C583.96 302.389 604.564 281.785 629.98 281.785ZM662.067 327.805C662.067 310.083 647.701 295.717 629.98 295.717C612.259 295.717 597.893 310.083 597.893 327.805C597.893 345.526 612.259 359.892 629.98 359.892C647.701 359.892 662.067 345.526 662.067 327.805Z" stroke="url(#paint23_linear_5_169)" stroke-width="3.25806"/>
</g>
<g filter="url(#filter23_f_5_169)">
<path d="M147.651 141.376C140.904 141.376 135.434 135.845 135.434 129.023V129.023C135.434 122.2 140.904 116.669 147.651 116.669V116.669C154.399 116.669 159.869 122.2 159.869 129.023V129.023C159.869 135.845 154.399 141.376 147.651 141.376V141.376Z" stroke="url(#paint24_linear_5_169)" stroke-width="3.25806"/>
</g>
<g filter="url(#filter24_f_5_169)">
<path d="M545.135 141.376C538.387 141.376 532.917 135.845 532.917 129.023V129.023C532.917 122.2 538.387 116.669 545.135 116.669V116.669C551.882 116.669 557.352 122.2 557.352 129.023V129.023C557.352 135.845 551.882 141.376 545.135 141.376V141.376Z" stroke="url(#paint25_linear_5_169)" stroke-width="3.25806"/>
</g>
<g filter="url(#filter25_f_5_169)">
<path d="M147.651 538.859C140.904 538.859 135.434 533.45 135.434 526.777V526.777C135.434 520.105 140.904 514.695 147.651 514.695V514.695C154.399 514.695 159.869 520.105 159.869 526.777V526.777C159.869 533.45 154.399 538.859 147.651 538.859V538.859Z" stroke="url(#paint26_linear_5_169)" stroke-width="3.25806"/>
</g>
<g filter="url(#filter26_f_5_169)">
<path d="M545.135 538.859C538.387 538.859 532.917 533.45 532.917 526.777V526.777C532.917 520.105 538.387 514.695 545.135 514.695V514.695C551.882 514.695 557.352 520.105 557.352 526.777V526.777C557.352 533.45 551.882 538.859 545.135 538.859V538.859Z" stroke="url(#paint27_linear_5_169)" stroke-width="3.25806"/>
</g>
<g filter="url(#filter27_f_5_169)">
<path fill-rule="evenodd" clip-rule="evenodd" d="M348.837 300.071C348.837 299.096 348.047 298.306 347.072 298.306C346.097 298.306 345.307 299.096 345.307 300.071V320.114C345.307 321.565 343.553 322.292 342.526 321.266L332.961 311.701C332.272 311.011 331.155 311.011 330.466 311.701C329.776 312.39 329.776 313.507 330.466 314.196L340.031 323.762C341.057 324.788 340.33 326.543 338.879 326.543H321.55C320.576 326.543 319.786 327.333 319.786 328.307C319.786 329.282 320.576 330.072 321.55 330.072H338.878C340.33 330.072 341.057 331.827 340.03 332.853L330.465 342.418C329.776 343.107 329.776 344.225 330.465 344.914C331.155 345.603 332.272 345.603 332.961 344.914L342.526 335.349C343.553 334.322 345.307 335.049 345.307 336.501V354.915C345.307 355.889 346.097 356.679 347.072 356.679C348.047 356.679 348.837 355.889 348.837 354.915V336.501C348.837 335.049 350.591 334.322 351.618 335.349L361.183 344.914C361.872 345.603 362.989 345.603 363.679 344.914C364.368 344.225 364.368 343.107 363.679 342.418L354.114 332.853C353.087 331.827 353.814 330.072 355.266 330.072H372.593C373.568 330.072 374.358 329.282 374.358 328.307C374.358 327.333 373.568 326.543 372.593 326.543H355.265C353.814 326.543 353.087 324.788 354.113 323.762L363.678 314.196C364.368 313.507 364.368 312.39 363.678 311.701C362.989 311.011 361.872 311.011 361.183 311.701L351.618 321.266C350.591 322.292 348.837 321.565 348.837 320.114V300.071Z" fill="url(#paint28_linear_5_169)"/>
</g>
<path d="M443.78 271.482C444.291 273.615 442.37 275.535 440.238 275.024L422.916 270.874C422.128 270.685 421.297 270.83 420.62 271.274L382.189 296.485C379.523 298.233 376.372 295.081 378.12 292.416L403.333 253.986C403.777 253.309 403.922 252.478 403.733 251.69L399.583 234.368C399.072 232.235 400.993 230.314 403.125 230.825L420.997 235.108C421.447 235.215 421.916 235.215 422.366 235.108L440.238 230.825C442.37 230.314 444.291 232.235 443.78 234.368L439.498 252.24C439.39 252.69 439.39 253.159 439.498 253.609L443.78 271.482Z" stroke="url(#paint29_linear_5_169)" stroke-width="3.25806"/>
<path d="M290.749 231.096C292.882 230.587 294.802 232.5 294.291 234.624L290.141 251.875C289.952 252.659 290.097 253.487 290.541 254.162L315.752 292.435C317.5 295.09 314.348 298.228 311.683 296.487L273.253 271.378C272.576 270.935 271.745 270.791 270.957 270.979L253.634 275.112C251.502 275.621 249.581 273.708 250.092 271.585L254.374 253.786C254.482 253.338 254.482 252.871 254.374 252.422L250.092 234.624C249.581 232.5 251.502 230.587 253.634 231.096L271.507 235.361C271.957 235.468 272.426 235.468 272.876 235.361L290.749 231.096Z" stroke="url(#paint30_linear_5_169)" stroke-width="3.25806"/>
<path d="M402.956 424.785C400.815 425.296 398.886 423.375 399.399 421.242L403.567 403.921C403.756 403.133 403.611 402.302 403.165 401.624L377.851 363.193C376.095 360.528 379.26 357.376 381.936 359.125L420.523 384.337C421.204 384.782 422.038 384.927 422.829 384.738L440.223 380.588C442.364 380.077 444.293 381.997 443.78 384.13L439.48 402.001C439.371 402.451 439.371 402.921 439.48 403.371L443.78 421.242C444.293 423.375 442.364 425.296 440.223 424.785L422.277 420.503C421.825 420.395 421.354 420.395 420.902 420.503L402.956 424.785Z" stroke="url(#paint31_linear_5_169)" stroke-width="3.25806"/>
<path d="M249.821 384.128C249.308 381.995 251.236 380.075 253.378 380.586L270.77 384.736C271.561 384.925 272.396 384.78 273.076 384.335L311.664 359.125C314.341 357.376 317.505 360.528 315.75 363.194L290.434 401.623C289.988 402.301 289.842 403.132 290.032 403.92L294.199 421.242C294.712 423.375 292.784 425.296 290.642 424.785L272.697 420.502C272.246 420.394 271.774 420.394 271.323 420.502L253.378 424.785C251.236 425.296 249.308 423.375 249.821 421.242L254.121 403.37C254.229 402.92 254.229 402.45 254.121 402L249.821 384.128Z" stroke="url(#paint32_linear_5_169)" stroke-width="3.25806"/>
<path d="M122.673 390.588C122.673 358.815 148.496 333.059 180.349 333.059L225.03 333.059C227.429 333.059 229.374 335.003 229.374 337.403L229.374 381.959C229.374 413.732 203.552 439.489 171.698 439.489L127.017 439.489C124.618 439.489 122.673 437.544 122.673 435.144L122.673 390.588Z" stroke="url(#paint33_linear_5_169)" stroke-width="3.25806"/>
<g filter="url(#filter28_d_5_169)">
<path d="M281.408 104.451C313.1 104.451 338.791 130.208 338.791 161.981L338.791 206.537C338.791 208.936 336.846 210.881 334.447 210.881L290.015 210.881C258.324 210.881 232.632 185.124 232.632 153.352L232.632 108.796C232.632 106.396 234.577 104.451 236.977 104.451L281.408 104.451Z" stroke="url(#paint34_linear_5_169)" stroke-width="3.25806" shape-rendering="crispEdges"/>
</g>
<g filter="url(#filter29_f_5_169)">
<path d="M409.896 550.805C378.123 550.806 352.366 525.114 352.366 493.423L352.366 444.647L401.266 444.647C433.039 444.647 458.796 470.338 458.796 502.03L458.796 550.805L409.896 550.805Z" stroke="url(#paint35_linear_5_169)" stroke-opacity="0.5" stroke-width="3.25806"/>
</g>
<path d="M409.896 550.805C378.123 550.806 352.366 525.114 352.366 493.423L352.366 448.991C352.366 446.592 354.311 444.647 356.71 444.647L401.266 444.647C433.039 444.647 458.796 470.338 458.796 502.03L458.796 546.461C458.796 548.861 456.851 550.805 454.452 550.805L409.896 550.805Z" stroke="url(#paint36_linear_5_169)" stroke-width="3.25806"/>
<path d="M519.584 437.045C487.811 437.045 462.054 411.354 462.054 379.662L462.054 335.231C462.054 332.831 463.999 330.887 466.398 330.887L510.954 330.887C542.727 330.887 568.484 356.578 568.484 388.269L568.484 432.701C568.484 435.1 566.539 437.045 564.14 437.045L519.584 437.045Z" stroke="url(#paint37_linear_5_169)" stroke-width="3.25806"/>
<path d="M171.698 213.325C203.552 213.325 229.374 239.016 229.374 270.708L229.374 315.139C229.374 317.538 227.429 319.483 225.03 319.483L180.349 319.483C148.496 319.483 122.673 293.792 122.673 262.1L122.673 217.669C122.673 215.27 124.618 213.325 127.017 213.325L171.698 213.325Z" stroke="url(#paint38_linear_5_169)" stroke-width="3.25806"/>
<path d="M458.796 153.352C458.796 185.124 433.039 210.881 401.266 210.881L356.71 210.881C354.311 210.881 352.366 208.936 352.366 206.537L352.366 161.981C352.366 130.208 378.123 104.451 409.896 104.451L454.452 104.451C456.851 104.451 458.796 106.396 458.796 108.795L458.796 153.352Z" stroke="url(#paint39_linear_5_169)" stroke-width="3.25806" stroke-linejoin="round"/>
<path d="M568.484 262.1C568.484 293.792 542.727 319.483 510.954 319.483L466.398 319.483C463.999 319.483 462.054 317.538 462.054 315.139L462.054 270.708C462.054 239.016 487.811 213.325 519.584 213.325L564.14 213.325C566.539 213.325 568.484 215.27 568.484 217.669L568.484 262.1Z" stroke="url(#paint40_linear_5_169)" stroke-width="3.25806" stroke-linejoin="round"/>
<path d="M236.162 502.03C236.162 470.338 261.853 444.647 293.545 444.647L337.976 444.647C340.376 444.647 342.32 446.592 342.32 448.991L342.32 493.423C342.32 525.114 316.629 550.806 284.938 550.806L240.506 550.806C238.107 550.806 236.162 548.861 236.162 546.461L236.162 502.03Z" stroke="url(#paint41_linear_5_169)" stroke-width="3.25806"/>
<path d="M195.218 210.811C193.43 211.24 191.82 209.63 192.248 207.842L195.838 192.857C195.929 192.48 195.929 192.087 195.838 191.709L192.248 176.725C191.82 174.937 193.43 173.327 195.218 173.755L210.202 177.345C210.58 177.436 210.973 177.436 211.35 177.345L226.335 173.755C228.123 173.327 229.733 174.937 229.305 176.725L225.714 191.709C225.624 192.087 225.624 192.48 225.714 192.857L229.305 207.842C229.733 209.63 228.123 211.24 226.335 210.811L211.35 207.221C210.973 207.131 210.58 207.131 210.202 207.221L195.218 210.811Z" stroke="url(#paint42_linear_5_169)" stroke-width="3.25806"/>
<g opacity="0.5" filter="url(#filter30_f_5_169)">
<path d="M462.124 176.725C461.696 174.937 463.306 173.327 465.094 173.755L480.078 177.345C480.455 177.436 480.849 177.436 481.226 177.345L496.211 173.755C497.999 173.327 499.609 174.937 499.18 176.725L495.59 191.709C495.5 192.087 495.5 192.48 495.59 192.857L499.18 207.842C499.609 209.63 497.999 211.24 496.211 210.812L481.226 207.221C480.849 207.131 480.455 207.131 480.078 207.221L465.094 210.811C463.306 211.24 461.696 209.63 462.124 207.842L465.714 192.857C465.805 192.48 465.805 192.087 465.714 191.709L462.124 176.725Z" stroke="url(#paint43_linear_5_169)" stroke-width="3.25806"/>
</g>
<path d="M462.124 176.725C461.696 174.937 463.306 173.327 465.094 173.755L480.078 177.345C480.455 177.436 480.849 177.436 481.226 177.345L496.211 173.755C497.999 173.327 499.609 174.937 499.18 176.725L495.59 191.709C495.5 192.087 495.5 192.48 495.59 192.857L499.18 207.842C499.609 209.63 497.999 211.24 496.211 210.812L481.226 207.221C480.849 207.131 480.455 207.131 480.078 207.221L465.094 210.811C463.306 211.24 461.696 209.63 462.124 207.842L465.714 192.857C465.805 192.48 465.805 192.087 465.714 191.709L462.124 176.725Z" stroke="url(#paint44_linear_5_169)" stroke-width="3.25806"/>
<path d="M198.476 444.716C196.688 444.291 195.078 445.89 195.506 447.665L199.096 462.54C199.187 462.914 199.187 463.305 199.096 463.679L195.506 478.554C195.078 480.329 196.688 481.928 198.476 481.502L213.46 477.938C213.838 477.849 214.231 477.849 214.608 477.938L229.593 481.502C231.381 481.928 232.991 480.329 232.563 478.554L228.972 463.679C228.882 463.305 228.882 462.914 228.972 462.54L232.563 447.665C232.991 445.89 231.381 444.291 229.593 444.716L214.608 448.281C214.231 448.37 213.838 448.37 213.46 448.281L198.476 444.716Z" stroke="url(#paint45_linear_5_169)" stroke-width="3.25806"/>
<path d="M461.309 479.075C460.881 480.863 462.491 482.473 464.279 482.045L479.264 478.455C479.641 478.364 480.034 478.364 480.412 478.455L495.396 482.045C497.184 482.473 498.794 480.863 498.366 479.075L494.776 464.091C494.685 463.713 494.685 463.32 494.776 462.943L498.366 447.958C498.794 446.17 497.184 444.56 495.396 444.988L480.412 448.579C480.034 448.669 479.641 448.669 479.264 448.579L464.279 444.988C462.491 444.56 460.881 446.17 461.309 447.958L464.9 462.943C464.99 463.32 464.99 463.713 464.9 464.091L461.309 479.075Z" stroke="url(#paint46_linear_5_169)" stroke-width="3.25806"/>
<path d="M605.816 102.822C587.597 102.822 572.828 88.114 572.828 69.9703V69.9703C572.828 51.8266 587.597 37.1182 605.816 37.1182V37.1182C624.035 37.1182 638.804 51.8266 638.804 69.9703V69.9703C638.804 88.114 624.035 102.822 605.816 102.822V102.822Z" stroke="url(#paint47_linear_5_169)" stroke-width="3.25806"/>
<path d="M607.852 620.854C589.709 620.854 575 606.085 575 587.866C575 569.647 589.709 554.878 607.852 554.878C625.996 554.878 640.704 569.647 640.704 587.866C640.704 606.085 625.996 620.854 607.852 620.854Z" stroke="url(#paint48_linear_5_169)" stroke-width="3.25806"/>
<path d="M86.2913 620.854C68.1476 620.854 53.4392 606.085 53.4392 587.866V587.866C53.4392 569.647 68.1476 554.878 86.2913 554.878V554.878C104.435 554.878 119.143 569.647 119.143 587.866V587.866C119.143 606.085 104.435 620.854 86.2913 620.854V620.854Z" stroke="url(#paint49_linear_5_169)" stroke-width="3.25806"/>
<path d="M86.2913 100.65C68.1476 100.65 53.4392 85.8811 53.4392 67.6625V67.6625C53.4392 49.4438 68.1476 34.6746 86.2913 34.6746V34.6746C104.435 34.6746 119.143 49.4438 119.143 67.6624V67.6624C119.143 85.8811 104.435 100.65 86.2913 100.65V100.65Z" stroke="url(#paint50_linear_5_169)" stroke-width="3.25806"/>
<g filter="url(#filter31_f_5_169)">
<path fill-rule="evenodd" clip-rule="evenodd" d="M64.5709 281.744C89.9121 281.744 110.455 302.348 110.455 327.764C110.455 353.18 89.9121 373.784 64.5709 373.784C39.2297 373.784 18.6866 353.18 18.6866 327.764C18.6866 302.348 39.2297 281.744 64.5709 281.744ZM96.5636 327.764C96.5636 310.043 82.24 295.677 64.5709 295.677C46.9018 295.677 32.5782 310.043 32.5782 327.764C32.5782 345.486 46.9018 359.852 64.5709 359.852C82.24 359.852 96.5636 345.486 96.5636 327.764Z" stroke="url(#paint51_linear_5_169)" stroke-width="3.25806"/>
</g>
<path fill-rule="evenodd" clip-rule="evenodd" d="M629.98 281.744C655.396 281.744 676 302.348 676 327.764C676 353.18 655.396 373.784 629.98 373.784C604.564 373.784 583.96 353.18 583.96 327.764C583.96 302.348 604.564 281.744 629.98 281.744ZM662.067 327.764C662.067 310.043 647.701 295.677 629.98 295.677C612.259 295.677 597.893 310.043 597.893 327.764C597.893 345.486 612.259 359.852 629.98 359.852C647.701 359.852 662.067 345.486 662.067 327.764Z" stroke="url(#paint52_linear_5_169)" stroke-width="3.25806"/>
<path opacity="0.9" d="M327.408 559.211C338.263 548.356 355.862 548.356 366.717 559.211M318.874 550.677C303.305 566.245 303.305 591.487 318.874 607.055C334.442 622.623 359.683 622.623 375.251 607.055C390.82 591.487 390.82 566.245 375.251 550.677C359.683 535.109 334.442 535.109 318.874 550.677Z" stroke="url(#paint53_linear_5_169)" stroke-width="3.25806" stroke-linecap="round"/>
<path d="M327.408 96.6294C338.263 107.484 355.862 107.484 366.717 96.6294M318.873 48.7859C303.305 64.3542 303.305 89.5953 318.873 105.164C334.442 120.732 359.683 120.732 375.251 105.164C390.82 89.5953 390.82 64.3542 375.251 48.7859C359.683 33.2176 334.442 33.2176 318.873 48.7859Z" stroke="url(#paint54_linear_5_169)" stroke-width="3.25806" stroke-linecap="round"/>
<path d="M147.651 141.376C140.904 141.376 135.434 135.845 135.434 129.023V129.023C135.434 122.2 140.904 116.669 147.651 116.669V116.669C154.399 116.669 159.869 122.2 159.869 129.023V129.023C159.869 135.845 154.399 141.376 147.651 141.376V141.376Z" stroke="url(#paint55_linear_5_169)" stroke-width="3.25806"/>
<path d="M545.135 141.376C538.387 141.376 532.917 135.845 532.917 129.023V129.023C532.917 122.2 538.387 116.669 545.135 116.669V116.669C551.882 116.669 557.352 122.2 557.352 129.023V129.023C557.352 135.845 551.882 141.376 545.135 141.376V141.376Z" stroke="url(#paint56_linear_5_169)" stroke-width="3.25806"/>
<path d="M147.651 538.859C140.904 538.859 135.434 533.45 135.434 526.777V526.777C135.434 520.105 140.904 514.696 147.651 514.696V514.696C154.399 514.696 159.869 520.105 159.869 526.777V526.777C159.869 533.45 154.399 538.859 147.651 538.859V538.859Z" stroke="url(#paint57_linear_5_169)" stroke-width="3.25806"/>
<path d="M544.003 540.704C537.228 540.704 531.736 535.213 531.736 528.438V528.438C531.736 521.664 537.228 516.172 544.003 516.172V516.172C550.777 516.172 556.269 521.664 556.269 528.438V528.438C556.269 535.212 550.777 540.704 544.003 540.704V540.704Z" stroke="url(#paint58_linear_5_169)" stroke-width="3.25806"/>
<path fill-rule="evenodd" clip-rule="evenodd" d="M348.837 300.071C348.837 299.096 348.047 298.306 347.072 298.306C346.097 298.306 345.307 299.096 345.307 300.071V320.114C345.307 321.565 343.553 322.292 342.526 321.266L332.961 311.701C332.272 311.011 331.155 311.011 330.466 311.701C329.776 312.39 329.776 313.507 330.466 314.196L340.031 323.762C341.057 324.788 340.33 326.543 338.879 326.543H321.55C320.576 326.543 319.786 327.333 319.786 328.307C319.786 329.282 320.576 330.072 321.55 330.072H338.878C340.33 330.072 341.057 331.827 340.03 332.853L330.465 342.418C329.776 343.107 329.776 344.225 330.465 344.914C331.155 345.603 332.272 345.603 332.961 344.914L342.526 335.349C343.553 334.322 345.307 335.049 345.307 336.501V354.915C345.307 355.889 346.097 356.679 347.072 356.679C348.047 356.679 348.837 355.889 348.837 354.915V336.501C348.837 335.049 350.591 334.322 351.618 335.349L361.183 344.914C361.872 345.603 362.989 345.603 363.679 344.914C364.368 344.225 364.368 343.107 363.679 342.418L354.114 332.853C353.087 331.827 353.814 330.072 355.266 330.072H372.593C373.568 330.072 374.358 329.282 374.358 328.307C374.358 327.333 373.568 326.543 372.593 326.543H355.265C353.814 326.543 353.087 324.788 354.113 323.762L363.678 314.196C364.368 313.507 364.368 312.39 363.678 311.701C362.989 311.011 361.872 311.011 361.183 311.701L351.618 321.266C350.591 322.292 348.837 321.565 348.837 320.114V300.071Z" fill="white"/>
<path fill-rule="evenodd" clip-rule="evenodd" d="M348.837 300.071C348.837 299.096 348.047 298.306 347.072 298.306C346.097 298.306 345.307 299.096 345.307 300.071V320.114C345.307 321.565 343.553 322.292 342.526 321.266L332.961 311.701C332.272 311.011 331.155 311.011 330.466 311.701C329.776 312.39 329.776 313.507 330.466 314.196L340.031 323.762C341.057 324.788 340.33 326.543 338.879 326.543H321.55C320.576 326.543 319.786 327.333 319.786 328.307C319.786 329.282 320.576 330.072 321.55 330.072H338.878C340.33 330.072 341.057 331.827 340.03 332.853L330.465 342.418C329.776 343.107 329.776 344.225 330.465 344.914C331.155 345.603 332.272 345.603 332.961 344.914L342.526 335.349C343.553 334.322 345.307 335.049 345.307 336.501V354.915C345.307 355.889 346.097 356.679 347.072 356.679C348.047 356.679 348.837 355.889 348.837 354.915V336.501C348.837 335.049 350.591 334.322 351.618 335.349L361.183 344.914C361.872 345.603 362.989 345.603 363.679 344.914C364.368 344.225 364.368 343.107 363.679 342.418L354.114 332.853C353.087 331.827 353.814 330.072 355.266 330.072H372.593C373.568 330.072 374.358 329.282 374.358 328.307C374.358 327.333 373.568 326.543 372.593 326.543H355.265C353.814 326.543 353.087 324.788 354.113 323.762L363.678 314.196C364.368 313.507 364.368 312.39 363.678 311.701C362.989 311.011 361.872 311.011 361.183 311.701L351.618 321.266C350.591 322.292 348.837 321.565 348.837 320.114V300.071Z" fill="url(#paint59_linear_5_169)"/>
<defs>
<filter id="filter0_f_5_169" x="107.469" y="317.854" width="137.11" height="136.839" filterUnits="userSpaceOnUse" color-interpolation-filters="sRGB">
<feFlood flood-opacity="0" result="BackgroundImageFix"/>
<feBlend mode="normal" in="SourceGraphic" in2="BackgroundImageFix" result="shape"/>
<feGaussianBlur stdDeviation="6.78762" result="effect1_foregroundBlur_5_169"/>
</filter>
<filter id="filter1_f_5_169" x="217.428" y="89.2471" width="136.567" height="136.838" filterUnits="userSpaceOnUse" color-interpolation-filters="sRGB">
<feFlood flood-opacity="0" result="BackgroundImageFix"/>
<feBlend mode="normal" in="SourceGraphic" in2="BackgroundImageFix" result="shape"/>
<feGaussianBlur stdDeviation="6.78762" result="effect1_foregroundBlur_5_169"/>
</filter>
<filter id="filter2_f_5_169" x="337.162" y="429.443" width="136.839" height="136.567" filterUnits="userSpaceOnUse" color-interpolation-filters="sRGB">
<feFlood flood-opacity="0" result="BackgroundImageFix"/>
<feBlend mode="normal" in="SourceGraphic" in2="BackgroundImageFix" result="shape"/>
<feGaussianBlur stdDeviation="6.78762" result="effect1_foregroundBlur_5_169"/>
</filter>
<filter id="filter3_f_5_169" x="446.85" y="315.682" width="136.838" height="136.567" filterUnits="userSpaceOnUse" color-interpolation-filters="sRGB">
<feFlood flood-opacity="0" result="BackgroundImageFix"/>
<feBlend mode="normal" in="SourceGraphic" in2="BackgroundImageFix" result="shape"/>
<feGaussianBlur stdDeviation="6.78762" result="effect1_foregroundBlur_5_169"/>
</filter>
<filter id="filter4_f_5_169" x="107.469" y="198.121" width="137.11" height="136.567" filterUnits="userSpaceOnUse" color-interpolation-filters="sRGB">
<feFlood flood-opacity="0" result="BackgroundImageFix"/>
<feBlend mode="normal" in="SourceGraphic" in2="BackgroundImageFix" result="shape"/>
<feGaussianBlur stdDeviation="6.78762" result="effect1_foregroundBlur_5_169"/>
</filter>
<filter id="filter5_f_5_169" x="337.162" y="89.2471" width="136.838" height="136.838" filterUnits="userSpaceOnUse" color-interpolation-filters="sRGB">
<feFlood flood-opacity="0" result="BackgroundImageFix"/>
<feBlend mode="normal" in="SourceGraphic" in2="BackgroundImageFix" result="shape"/>
<feGaussianBlur stdDeviation="6.78762" result="effect1_foregroundBlur_5_169"/>
</filter>
<filter id="filter6_f_5_169" x="446.85" y="198.121" width="136.838" height="136.567" filterUnits="userSpaceOnUse" color-interpolation-filters="sRGB">
<feFlood flood-opacity="0" result="BackgroundImageFix"/>
<feBlend mode="normal" in="SourceGraphic" in2="BackgroundImageFix" result="shape"/>
<feGaussianBlur stdDeviation="6.78762" result="effect1_foregroundBlur_5_169"/>
</filter>
<filter id="filter7_f_5_169" x="217.428" y="429.443" width="136.567" height="136.567" filterUnits="userSpaceOnUse" color-interpolation-filters="sRGB">
<feFlood flood-opacity="0" result="BackgroundImageFix"/>
<feBlend mode="normal" in="SourceGraphic" in2="BackgroundImageFix" result="shape"/>
<feGaussianBlur stdDeviation="6.78762" result="effect1_foregroundBlur_5_169"/>
</filter>
<filter id="filter8_f_5_169" x="176.973" y="158.48" width="67.6074" height="67.6074" filterUnits="userSpaceOnUse" color-interpolation-filters="sRGB">
<feFlood flood-opacity="0" result="BackgroundImageFix"/>
<feBlend mode="normal" in="SourceGraphic" in2="BackgroundImageFix" result="shape"/>
<feGaussianBlur stdDeviation="6.78762" result="effect1_foregroundBlur_5_169"/>
</filter>
<filter id="filter9_f_5_169" x="446.848" y="158.48" width="67.6074" height="67.6074" filterUnits="userSpaceOnUse" color-interpolation-filters="sRGB">
<feFlood flood-opacity="0" result="BackgroundImageFix"/>
<feBlend mode="normal" in="SourceGraphic" in2="BackgroundImageFix" result="shape"/>
<feGaussianBlur stdDeviation="6.78762" result="effect1_foregroundBlur_5_169"/>
</filter>
<filter id="filter10_f_5_169" x="176.973" y="426.998" width="67.6074" height="67.6074" filterUnits="userSpaceOnUse" color-interpolation-filters="sRGB">
<feFlood flood-opacity="0" result="BackgroundImageFix"/>
<feBlend mode="normal" in="SourceGraphic" in2="BackgroundImageFix" result="shape"/>
<feGaussianBlur stdDeviation="6.78762" result="effect1_foregroundBlur_5_169"/>
</filter>
<filter id="filter11_f_5_169" x="446.848" y="426.998" width="67.6074" height="67.6074" filterUnits="userSpaceOnUse" color-interpolation-filters="sRGB">
<feFlood flood-opacity="0" result="BackgroundImageFix"/>
<feBlend mode="normal" in="SourceGraphic" in2="BackgroundImageFix" result="shape"/>
<feGaussianBlur stdDeviation="6.78762" result="effect1_foregroundBlur_5_169"/>
</filter>
<filter id="filter12_f_5_169" x="359.684" y="211.735" width="102.1" height="102.1" filterUnits="userSpaceOnUse" color-interpolation-filters="sRGB">
<feFlood flood-opacity="0" result="BackgroundImageFix"/>
<feBlend mode="normal" in="SourceGraphic" in2="BackgroundImageFix" result="shape"/>
<feGaussianBlur stdDeviation="8.14515" result="effect1_foregroundBlur_5_169"/>
</filter>
<filter id="filter13_f_5_169" x="232.088" y="211.736" width="102.106" height="101.822" filterUnits="userSpaceOnUse" color-interpolation-filters="sRGB">
<feFlood flood-opacity="0" result="BackgroundImageFix"/>
<feBlend mode="normal" in="SourceGraphic" in2="BackgroundImageFix" result="shape"/>
<feGaussianBlur stdDeviation="8.14515" result="effect1_foregroundBlur_5_169"/>
</filter>
<filter id="filter14_f_5_169" x="359.407" y="341.78" width="102.377" height="102.094" filterUnits="userSpaceOnUse" color-interpolation-filters="sRGB">
<feFlood flood-opacity="0" result="BackgroundImageFix"/>
<feBlend mode="normal" in="SourceGraphic" in2="BackgroundImageFix" result="shape"/>
<feGaussianBlur stdDeviation="8.14515" result="effect1_foregroundBlur_5_169"/>
</filter>
<filter id="filter15_f_5_169" x="231.816" y="341.78" width="102.377" height="102.094" filterUnits="userSpaceOnUse" color-interpolation-filters="sRGB">
<feFlood flood-opacity="0" result="BackgroundImageFix"/>
<feBlend mode="normal" in="SourceGraphic" in2="BackgroundImageFix" result="shape"/>
<feGaussianBlur stdDeviation="8.14515" result="effect1_foregroundBlur_5_169"/>
</filter>
<filter id="filter16_f_5_169" x="289.278" y="521.081" width="115.569" height="115.569" filterUnits="userSpaceOnUse" color-interpolation-filters="sRGB">
<feFlood flood-opacity="0" result="BackgroundImageFix"/>
<feBlend mode="normal" in="SourceGraphic" in2="BackgroundImageFix" result="shape"/>
<feGaussianBlur stdDeviation="8.14515" result="effect1_foregroundBlur_5_169"/>
</filter>
<filter id="filter17_f_5_169" x="289.278" y="19.1904" width="115.569" height="115.569" filterUnits="userSpaceOnUse" color-interpolation-filters="sRGB">
<feFlood flood-opacity="0" result="BackgroundImageFix"/>
<feBlend mode="normal" in="SourceGraphic" in2="BackgroundImageFix" result="shape"/>
<feGaussianBlur stdDeviation="8.14515" result="effect1_foregroundBlur_5_169"/>
</filter>
<filter id="filter18_f_5_169" x="557.624" y="21.9139" width="96.3843" height="96.1127" filterUnits="userSpaceOnUse" color-interpolation-filters="sRGB">
<feFlood flood-opacity="0" result="BackgroundImageFix"/>
<feBlend mode="normal" in="SourceGraphic" in2="BackgroundImageFix" result="shape"/>
<feGaussianBlur stdDeviation="6.78762" result="effect1_foregroundBlur_5_169"/>
</filter>
<filter id="filter19_f_5_169" x="559.796" y="539.674" width="96.1128" height="96.3843" filterUnits="userSpaceOnUse" color-interpolation-filters="sRGB">
<feFlood flood-opacity="0" result="BackgroundImageFix"/>
<feBlend mode="normal" in="SourceGraphic" in2="BackgroundImageFix" result="shape"/>
<feGaussianBlur stdDeviation="6.78762" result="effect1_foregroundBlur_5_169"/>
</filter>
<filter id="filter20_f_5_169" x="38.2349" y="539.674" width="96.1127" height="96.3842" filterUnits="userSpaceOnUse" color-interpolation-filters="sRGB">
<feFlood flood-opacity="0" result="BackgroundImageFix"/>
<feBlend mode="normal" in="SourceGraphic" in2="BackgroundImageFix" result="shape"/>
<feGaussianBlur stdDeviation="6.78762" result="effect1_foregroundBlur_5_169"/>
</filter>
<filter id="filter21_f_5_169" x="38.2349" y="19.4703" width="96.1127" height="96.3843" filterUnits="userSpaceOnUse" color-interpolation-filters="sRGB">
<feFlood flood-opacity="0" result="BackgroundImageFix"/>
<feBlend mode="normal" in="SourceGraphic" in2="BackgroundImageFix" result="shape"/>
<feGaussianBlur stdDeviation="6.78762" result="effect1_foregroundBlur_5_169"/>
</filter>
<filter id="filter22_f_5_169" x="568.756" y="266.581" width="122.449" height="122.449" filterUnits="userSpaceOnUse" color-interpolation-filters="sRGB">
<feFlood flood-opacity="0" result="BackgroundImageFix"/>
<feBlend mode="normal" in="SourceGraphic" in2="BackgroundImageFix" result="shape"/>
<feGaussianBlur stdDeviation="6.78762" result="effect1_foregroundBlur_5_169"/>
</filter>
<filter id="filter23_f_5_169" x="120.229" y="101.465" width="54.844" height="55.1155" filterUnits="userSpaceOnUse" color-interpolation-filters="sRGB">
<feFlood flood-opacity="0" result="BackgroundImageFix"/>
<feBlend mode="normal" in="SourceGraphic" in2="BackgroundImageFix" result="shape"/>
<feGaussianBlur stdDeviation="6.78762" result="effect1_foregroundBlur_5_169"/>
</filter>
<filter id="filter24_f_5_169" x="517.713" y="101.465" width="54.844" height="55.1155" filterUnits="userSpaceOnUse" color-interpolation-filters="sRGB">
<feFlood flood-opacity="0" result="BackgroundImageFix"/>
<feBlend mode="normal" in="SourceGraphic" in2="BackgroundImageFix" result="shape"/>
<feGaussianBlur stdDeviation="6.78762" result="effect1_foregroundBlur_5_169"/>
</filter>
<filter id="filter25_f_5_169" x="120.229" y="499.491" width="54.844" height="54.5725" filterUnits="userSpaceOnUse" color-interpolation-filters="sRGB">
<feFlood flood-opacity="0" result="BackgroundImageFix"/>
<feBlend mode="normal" in="SourceGraphic" in2="BackgroundImageFix" result="shape"/>
<feGaussianBlur stdDeviation="6.78762" result="effect1_foregroundBlur_5_169"/>
</filter>
<filter id="filter26_f_5_169" x="517.713" y="499.491" width="54.844" height="54.5725" filterUnits="userSpaceOnUse" color-interpolation-filters="sRGB">
<feFlood flood-opacity="0" result="BackgroundImageFix"/>
<feBlend mode="normal" in="SourceGraphic" in2="BackgroundImageFix" result="shape"/>
<feGaussianBlur stdDeviation="6.78762" result="effect1_foregroundBlur_5_169"/>
</filter>
<filter id="filter27_f_5_169" x="303.495" y="282.016" width="87.1531" height="90.9542" filterUnits="userSpaceOnUse" color-interpolation-filters="sRGB">
<feFlood flood-opacity="0" result="BackgroundImageFix"/>
<feBlend mode="normal" in="SourceGraphic" in2="BackgroundImageFix" result="shape"/>
<feGaussianBlur stdDeviation="8.14515" result="effect1_foregroundBlur_5_169"/>
</filter>
<filter id="filter28_d_5_169" x="229.917" y="102.822" width="111.589" height="111.86" filterUnits="userSpaceOnUse" color-interpolation-filters="sRGB">
<feFlood flood-opacity="0" result="BackgroundImageFix"/>
<feColorMatrix in="SourceAlpha" type="matrix" values="0 0 0 0 0 0 0 0 0 0 0 0 0 0 0 0 0 0 127 0" result="hardAlpha"/>
<feOffset dy="1.08602"/>
<feGaussianBlur stdDeviation="0.54301"/>
<feComposite in2="hardAlpha" operator="out"/>
<feColorMatrix type="matrix" values="0 0 0 0 0 0 0 0 0 0 0 0 0 0 0 0 0 0 0.25 0"/>
<feBlend mode="normal" in2="BackgroundImageFix" result="effect1_dropShadow_5_169"/>
<feBlend mode="normal" in="SourceGraphic" in2="effect1_dropShadow_5_169" result="shape"/>
</filter>
<filter id="filter29_f_5_169" x="345.307" y="437.588" width="120.548" height="120.277" filterUnits="userSpaceOnUse" color-interpolation-filters="sRGB">
<feFlood flood-opacity="0" result="BackgroundImageFix"/>
<feBlend mode="normal" in="SourceGraphic" in2="BackgroundImageFix" result="shape"/>
<feGaussianBlur stdDeviation="2.71505" result="effect1_foregroundBlur_5_169"/>
</filter>
<filter id="filter30_f_5_169" x="456.351" y="167.982" width="48.6021" height="48.6021" filterUnits="userSpaceOnUse" color-interpolation-filters="sRGB">
<feFlood flood-opacity="0" result="BackgroundImageFix"/>
<feBlend mode="normal" in="SourceGraphic" in2="BackgroundImageFix" result="shape"/>
<feGaussianBlur stdDeviation="2.03629" result="effect1_foregroundBlur_5_169"/>
</filter>
<filter id="filter31_f_5_169" x="0.767242" y="263.825" width="127.607" height="127.879" filterUnits="userSpaceOnUse" color-interpolation-filters="sRGB">
<feFlood flood-opacity="0" result="BackgroundImageFix"/>
<feBlend mode="normal" in="SourceGraphic" in2="BackgroundImageFix" result="shape"/>
<feGaussianBlur stdDeviation="8.14515" result="effect1_foregroundBlur_5_169"/>
</filter>
<linearGradient id="paint0_linear_5_169" x1="243.054" y1="311.227" x2="107.652" y2="456.207" gradientUnits="userSpaceOnUse">
<stop stop-color="#F9F9E0"/>
<stop offset="0.333333" stop-color="#FBF6EE"/>
<stop offset="0.666667" stop-color="#C1F2B0"/>
<stop offset="1" stop-color="#65B741"/>
</linearGradient>
<linearGradient id="paint1_linear_5_169" x1="360.567" y1="224.526" x2="215.956" y2="89.4695" gradientUnits="userSpaceOnUse">
<stop stop-color="#F9F9E0"/>
<stop offset="0.333333" stop-color="#FBF6EE"/>
<stop offset="0.666667" stop-color="#C1F2B0"/>
<stop offset="1" stop-color="#65B741"/>
</linearGradient>
<linearGradient id="paint2_linear_5_169" x1="330.534" y1="431.037" x2="474.825" y2="566.485" gradientUnits="userSpaceOnUse">
<stop stop-color="#F9F9E0"/>
<stop offset="0.333333" stop-color="#FBF6EE"/>
<stop offset="0.666667" stop-color="#C1F2B0"/>
<stop offset="1" stop-color="#65B741"/>
</linearGradient>
<linearGradient id="paint3_linear_5_169" x1="440.222" y1="317.277" x2="584.513" y2="452.724" gradientUnits="userSpaceOnUse">
<stop stop-color="#F9F9E0"/>
<stop offset="0.333333" stop-color="#FBF6EE"/>
<stop offset="0.666667" stop-color="#C1F2B0"/>
<stop offset="1" stop-color="#65B741"/>
</linearGradient>
<linearGradient id="paint4_linear_5_169" x1="251.262" y1="333.093" x2="106.949" y2="197.279" gradientUnits="userSpaceOnUse">
<stop stop-color="#F9F9E0"/>
<stop offset="0.333333" stop-color="#FBF6EE"/>
<stop offset="0.666667" stop-color="#C1F2B0"/>
<stop offset="1" stop-color="#65B741"/>
</linearGradient>
<linearGradient id="paint5_linear_5_169" x1="338.721" y1="232.713" x2="474.147" y2="88.0776" gradientUnits="userSpaceOnUse">
<stop stop-color="#F9F9E0"/>
<stop offset="0.333333" stop-color="#FBF6EE"/>
<stop offset="0.666667" stop-color="#C1F2B0"/>
<stop offset="1" stop-color="#65B741"/>
</linearGradient>
<linearGradient id="paint6_linear_5_169" x1="448.409" y1="341.259" x2="583.466" y2="196.649" gradientUnits="userSpaceOnUse">
<stop stop-color="#F9F9E0"/>
<stop offset="0.333333" stop-color="#FBF6EE"/>
<stop offset="0.666667" stop-color="#C1F2B0"/>
<stop offset="1" stop-color="#65B741"/>
</linearGradient>
<linearGradient id="paint7_linear_5_169" x1="352.401" y1="422.871" x2="217.321" y2="567.138" gradientUnits="userSpaceOnUse">
<stop stop-color="#F9F9E0"/>
<stop offset="0.333333" stop-color="#FBF6EE"/>
<stop offset="0.666667" stop-color="#C1F2B0"/>
<stop offset="1" stop-color="#65B741"/>
</linearGradient>
<linearGradient id="paint8_linear_5_169" x1="184.548" y1="168.916" x2="235.097" y2="216.246" gradientUnits="userSpaceOnUse">
<stop stop-color="#F9F9E0"/>
<stop offset="0.333333" stop-color="#FBF6EE"/>
<stop offset="0.666667" stop-color="#C1F2B0"/>
<stop offset="1" stop-color="#65B741"/>
</linearGradient>
<linearGradient id="paint9_linear_5_169" x1="504.019" y1="166.055" x2="456.689" y2="216.604" gradientUnits="userSpaceOnUse">
<stop stop-color="#F9F9E0"/>
<stop offset="0.333333" stop-color="#FBF6EE"/>
<stop offset="0.666667" stop-color="#C1F2B0"/>
<stop offset="1" stop-color="#65B741"/>
</linearGradient>
<linearGradient id="paint10_linear_5_169" x1="184.548" y1="484.168" x2="235.097" y2="436.839" gradientUnits="userSpaceOnUse">
<stop stop-color="#F9F9E0"/>
<stop offset="0.333333" stop-color="#FBF6EE"/>
<stop offset="0.666667" stop-color="#C1F2B0"/>
<stop offset="1" stop-color="#65B741"/>
</linearGradient>
<linearGradient id="paint11_linear_5_169" x1="504.019" y1="487.03" x2="456.689" y2="436.481" gradientUnits="userSpaceOnUse">
<stop stop-color="#F9F9E0"/>
<stop offset="0.333333" stop-color="#FBF6EE"/>
<stop offset="0.666667" stop-color="#C1F2B0"/>
<stop offset="1" stop-color="#65B741"/>
</linearGradient>
<linearGradient id="paint12_linear_5_169" x1="369.123" y1="309.492" x2="453.418" y2="219.464" gradientUnits="userSpaceOnUse">
<stop stop-color="#F9F9E0"/>
<stop offset="0.333333" stop-color="#FBF6EE"/>
<stop offset="0.666667" stop-color="#C1F2B0"/>
<stop offset="1" stop-color="#65B741"/>
</linearGradient>
<linearGradient id="paint13_linear_5_169" x1="329.845" y1="304.09" x2="240.162" y2="219.773" gradientUnits="userSpaceOnUse">
<stop stop-color="#F9F9E0"/>
<stop offset="0.333333" stop-color="#FBF6EE"/>
<stop offset="0.666667" stop-color="#C1F2B0"/>
<stop offset="1" stop-color="#65B741"/>
</linearGradient>
<linearGradient id="paint14_linear_5_169" x1="363.7" y1="351.213" x2="453.751" y2="435.876" gradientUnits="userSpaceOnUse">
<stop stop-color="#F9F9E0"/>
<stop offset="0.333333" stop-color="#FBF6EE"/>
<stop offset="0.666667" stop-color="#C1F2B0"/>
<stop offset="1" stop-color="#65B741"/>
</linearGradient>
<linearGradient id="paint15_linear_5_169" x1="324.784" y1="346.118" x2="240.512" y2="436.49" gradientUnits="userSpaceOnUse">
<stop stop-color="#F9F9E0"/>
<stop offset="0.333333" stop-color="#FBF6EE"/>
<stop offset="0.666667" stop-color="#C1F2B0"/>
<stop offset="1" stop-color="#65B741"/>
</linearGradient>
<linearGradient id="paint16_linear_5_169" x1="129.28" y1="385.625" x2="4.22417" y2="268.878" gradientUnits="userSpaceOnUse">
<stop stop-color="#F9F9E0"/>
<stop offset="0.333333" stop-color="#FBF6EE"/>
<stop offset="0.666667" stop-color="#C1F2B0"/>
<stop offset="1" stop-color="#65B741"/>
</linearGradient>
<linearGradient id="paint17_linear_5_169" x1="342.726" y1="503.695" x2="347.604" y2="652.048" gradientUnits="userSpaceOnUse">
<stop stop-color="#FFF0D4"/>
<stop offset="0.243631" stop-color="#F7B928"/>
<stop offset="0.720583" stop-color="#C1F2B0"/>
<stop offset="0.979167" stop-color="#65B741"/>
</linearGradient>
<linearGradient id="paint18_linear_5_169" x1="342.726" y1="1.80445" x2="347.604" y2="150.157" gradientUnits="userSpaceOnUse">
<stop stop-color="#FFF0D4"/>
<stop offset="0.243631" stop-color="#F7B928"/>
<stop offset="0.720583" stop-color="#C1F2B0"/>
<stop offset="0.979167" stop-color="#65B741"/>
</linearGradient>
<linearGradient id="paint19_linear_5_169" x1="559.295" y1="28.6946" x2="648.608" y2="112.666" gradientUnits="userSpaceOnUse">
<stop stop-color="#F9F9E0"/>
<stop offset="0.333333" stop-color="#FBF6EE"/>
<stop offset="0.666667" stop-color="#C1F2B0"/>
<stop offset="1" stop-color="#65B741"/>
</linearGradient>
<linearGradient id="paint20_linear_5_169" x1="561.522" y1="546.42" x2="651.157" y2="630.001" gradientUnits="userSpaceOnUse">
<stop stop-color="#F9F9E0"/>
<stop offset="0.333333" stop-color="#FBF6EE"/>
<stop offset="0.666667" stop-color="#C1F2B0"/>
<stop offset="1" stop-color="#65B741"/>
</linearGradient>
<linearGradient id="paint21_linear_5_169" x1="39.9614" y1="546.42" x2="129.596" y2="630.001" gradientUnits="userSpaceOnUse">
<stop stop-color="#F9F9E0"/>
<stop offset="0.333333" stop-color="#FBF6EE"/>
<stop offset="0.666667" stop-color="#C1F2B0"/>
<stop offset="1" stop-color="#65B741"/>
</linearGradient>
<linearGradient id="paint22_linear_5_169" x1="39.9614" y1="26.2162" x2="129.596" y2="109.797" gradientUnits="userSpaceOnUse">
<stop stop-color="#F9F9E0"/>
<stop offset="0.333333" stop-color="#FBF6EE"/>
<stop offset="0.666667" stop-color="#C1F2B0"/>
<stop offset="1" stop-color="#65B741"/>
</linearGradient>
<linearGradient id="paint23_linear_5_169" x1="694.88" y1="385.625" x2="569.8" y2="268.51" gradientUnits="userSpaceOnUse">
<stop stop-color="#F9F9E0"/>
<stop offset="0.333333" stop-color="#FBF6EE"/>
<stop offset="0.666667" stop-color="#C1F2B0"/>
<stop offset="1" stop-color="#65B741"/>
</linearGradient>
<linearGradient id="paint24_linear_5_169" x1="130.421" y1="113.502" x2="163.971" y2="144.57" gradientUnits="userSpaceOnUse">
<stop stop-color="#F9F9E0"/>
<stop offset="0.333333" stop-color="#FBF6EE"/>
<stop offset="0.666667" stop-color="#C1F2B0"/>
<stop offset="1" stop-color="#65B741"/>
</linearGradient>
<linearGradient id="paint25_linear_5_169" x1="527.905" y1="113.502" x2="561.454" y2="144.57" gradientUnits="userSpaceOnUse">
<stop stop-color="#F9F9E0"/>
<stop offset="0.333333" stop-color="#FBF6EE"/>
<stop offset="0.666667" stop-color="#C1F2B0"/>
<stop offset="1" stop-color="#65B741"/>
</linearGradient>
<linearGradient id="paint26_linear_5_169" x1="130.421" y1="511.598" x2="163.282" y2="542.711" gradientUnits="userSpaceOnUse">
<stop stop-color="#F9F9E0"/>
<stop offset="0.333333" stop-color="#FBF6EE"/>
<stop offset="0.666667" stop-color="#C1F2B0"/>
<stop offset="1" stop-color="#65B741"/>
</linearGradient>
<linearGradient id="paint27_linear_5_169" x1="527.905" y1="511.598" x2="560.765" y2="542.711" gradientUnits="userSpaceOnUse">
<stop stop-color="#F9F9E0"/>
<stop offset="0.333333" stop-color="#FBF6EE"/>
<stop offset="0.666667" stop-color="#C1F2B0"/>
<stop offset="1" stop-color="#65B741"/>
</linearGradient>
<linearGradient id="paint28_linear_5_169" x1="346.603" y1="332.992" x2="388.861" y2="295.103" gradientUnits="userSpaceOnUse">
<stop stop-color="#FFF0D4"/>
<stop offset="0.5" stop-color="#C1F2B0"/>
<stop offset="1" stop-color="#65B741"/>
</linearGradient>
<linearGradient id="paint29_linear_5_169" x1="369.123" y1="310.578" x2="453.418" y2="220.55" gradientUnits="userSpaceOnUse">
<stop stop-color="#F9F9E0"/>
<stop offset="0.333333" stop-color="#FBF6EE"/>
<stop offset="0.666667" stop-color="#C1F2B0"/>
<stop offset="1" stop-color="#65B741"/>
</linearGradient>
<linearGradient id="paint30_linear_5_169" x1="329.845" y1="305.448" x2="240.162" y2="221.13" gradientUnits="userSpaceOnUse">
<stop stop-color="#FBF6EE"/>
<stop offset="0.720583" stop-color="#82C3FF"/>
<stop offset="0.979167" stop-color="#96DAE9"/>
</linearGradient>
<linearGradient id="paint31_linear_5_169" x1="363.7" y1="350.127" x2="453.751" y2="434.79" gradientUnits="userSpaceOnUse">
<stop stop-color="#F9F9E0"/>
<stop offset="0.333333" stop-color="#FBF6EE"/>
<stop offset="0.666667" stop-color="#C1F2B0"/>
<stop offset="1" stop-color="#65B741"/>
</linearGradient>
<linearGradient id="paint32_linear_5_169" x1="324.784" y1="345.032" x2="240.512" y2="435.404" gradientUnits="userSpaceOnUse">
<stop stop-color="#F9F9E0"/>
<stop offset="0.333333" stop-color="#FBF6EE"/>
<stop offset="0.666667" stop-color="#C1F2B0"/>
<stop offset="1" stop-color="#65B741"/>
</linearGradient>
<linearGradient id="paint33_linear_5_169" x1="243.054" y1="311.227" x2="107.652" y2="456.207" gradientUnits="userSpaceOnUse">
<stop stop-color="#F9F9E0"/>
<stop offset="0.333333" stop-color="#FBF6EE"/>
<stop offset="0.666667" stop-color="#C1F2B0"/>
<stop offset="1" stop-color="#65B741"/>
</linearGradient>
<linearGradient id="paint34_linear_5_169" x1="360.567" y1="224.526" x2="215.956" y2="89.4695" gradientUnits="userSpaceOnUse">
<stop stop-color="#F9F9E0"/>
<stop offset="0.333333" stop-color="#FBF6EE"/>
<stop offset="0.666667" stop-color="#C1F2B0"/>
<stop offset="1" stop-color="#65B741"/>
</linearGradient>
<linearGradient id="paint35_linear_5_169" x1="330.534" y1="431.037" x2="474.825" y2="566.485" gradientUnits="userSpaceOnUse">
<stop stop-color="#FFF0D4"/>
<stop offset="0.720583" stop-color="#82C3FF"/>
<stop offset="0.979167" stop-color="#96DAE9"/>
</linearGradient>
<linearGradient id="paint36_linear_5_169" x1="330.534" y1="431.037" x2="474.825" y2="566.485" gradientUnits="userSpaceOnUse">
<stop stop-color="#F9F9E0"/>
<stop offset="0.333333" stop-color="#FBF6EE"/>
<stop offset="0.666667" stop-color="#C1F2B0"/>
<stop offset="1" stop-color="#65B741"/>
</linearGradient>
<linearGradient id="paint37_linear_5_169" x1="440.222" y1="317.277" x2="584.513" y2="452.724" gradientUnits="userSpaceOnUse">
<stop stop-color="#F9F9E0"/>
<stop offset="0.333333" stop-color="#FBF6EE"/>
<stop offset="0.666667" stop-color="#C1F2B0"/>
<stop offset="1" stop-color="#65B741"/>
</linearGradient>
<linearGradient id="paint38_linear_5_169" x1="251.262" y1="333.093" x2="106.949" y2="197.279" gradientUnits="userSpaceOnUse">
<stop stop-color="#F9F9E0"/>
<stop offset="0.333333" stop-color="#FBF6EE"/>
<stop offset="0.666667" stop-color="#C1F2B0"/>
<stop offset="1" stop-color="#65B741"/>
</linearGradient>
<linearGradient id="paint39_linear_5_169" x1="338.721" y1="232.713" x2="474.147" y2="88.0776" gradientUnits="userSpaceOnUse">
<stop stop-color="#F9F9E0"/>
<stop offset="0.333333" stop-color="#FBF6EE"/>
<stop offset="0.666667" stop-color="#C1F2B0"/>
<stop offset="1" stop-color="#65B741"/>
</linearGradient>
<linearGradient id="paint40_linear_5_169" x1="448.409" y1="341.259" x2="583.466" y2="196.649" gradientUnits="userSpaceOnUse">
<stop stop-color="#F9F9E0"/>
<stop offset="0.333333" stop-color="#FBF6EE"/>
<stop offset="0.666667" stop-color="#C1F2B0"/>
<stop offset="1" stop-color="#65B741"/>
</linearGradient>
<linearGradient id="paint41_linear_5_169" x1="355.931" y1="422.871" x2="220.851" y2="567.138" gradientUnits="userSpaceOnUse">
<stop stop-color="#F9F9E0"/>
<stop offset="0.333333" stop-color="#FBF6EE"/>
<stop offset="0.666667" stop-color="#C1F2B0"/>
<stop offset="1" stop-color="#65B741"/>
</linearGradient>
<linearGradient id="paint42_linear_5_169" x1="184.548" y1="168.916" x2="235.097" y2="216.246" gradientUnits="userSpaceOnUse">
<stop stop-color="#F9F9E0"/>
<stop offset="0.333333" stop-color="#FBF6EE"/>
<stop offset="0.666667" stop-color="#C1F2B0"/>
<stop offset="1" stop-color="#65B741"/>
</linearGradient>
<linearGradient id="paint43_linear_5_169" x1="504.019" y1="166.055" x2="456.689" y2="216.604" gradientUnits="userSpaceOnUse">
<stop stop-color="#F9F9E0"/>
<stop offset="0.333333" stop-color="#FBF6EE"/>
<stop offset="0.666667" stop-color="#C1F2B0"/>
<stop offset="1" stop-color="#65B741"/>
</linearGradient>
<linearGradient id="paint44_linear_5_169" x1="504.019" y1="166.055" x2="456.689" y2="216.604" gradientUnits="userSpaceOnUse">
<stop stop-color="#F9F9E0"/>
<stop offset="0.333333" stop-color="#FBF6EE"/>
<stop offset="0.666667" stop-color="#C1F2B0"/>
<stop offset="1" stop-color="#65B741"/>
</linearGradient>
<linearGradient id="paint45_linear_5_169" x1="187.806" y1="486.306" x2="238.009" y2="438.954" gradientUnits="userSpaceOnUse">
<stop stop-color="#F9F9E0"/>
<stop offset="0.333333" stop-color="#FBF6EE"/>
<stop offset="0.666667" stop-color="#C1F2B0"/>
<stop offset="1" stop-color="#65B741"/>
</linearGradient>
<linearGradient id="paint46_linear_5_169" x1="503.204" y1="489.745" x2="455.875" y2="439.196" gradientUnits="userSpaceOnUse">
<stop stop-color="#F9F9E0"/>
<stop offset="0.333333" stop-color="#FBF6EE"/>
<stop offset="0.666667" stop-color="#C1F2B0"/>
<stop offset="1" stop-color="#65B741"/>
</linearGradient>
<linearGradient id="paint47_linear_5_169" x1="559.295" y1="28.6946" x2="648.608" y2="112.666" gradientUnits="userSpaceOnUse">
<stop stop-color="#F9F9E0"/>
<stop offset="0.333333" stop-color="#FBF6EE"/>
<stop offset="0.666667" stop-color="#C1F2B0"/>
<stop offset="1" stop-color="#65B741"/>
</linearGradient>
<linearGradient id="paint48_linear_5_169" x1="561.522" y1="546.42" x2="651.157" y2="630.001" gradientUnits="userSpaceOnUse">
<stop stop-color="#F9F9E0"/>
<stop offset="0.333333" stop-color="#FBF6EE"/>
<stop offset="0.666667" stop-color="#C1F2B0"/>
<stop offset="1" stop-color="#65B741"/>
</linearGradient>
<linearGradient id="paint49_linear_5_169" x1="39.9614" y1="546.42" x2="129.596" y2="630.001" gradientUnits="userSpaceOnUse">
<stop stop-color="#F9F9E0"/>
<stop offset="0.333333" stop-color="#FBF6EE"/>
<stop offset="0.666667" stop-color="#C1F2B0"/>
<stop offset="1" stop-color="#65B741"/>
</linearGradient>
<linearGradient id="paint50_linear_5_169" x1="39.9614" y1="26.2162" x2="129.596" y2="109.797" gradientUnits="userSpaceOnUse">
<stop stop-color="#F9F9E0"/>
<stop offset="0.333333" stop-color="#FBF6EE"/>
<stop offset="0.666667" stop-color="#C1F2B0"/>
<stop offset="1" stop-color="#65B741"/>
</linearGradient>
<linearGradient id="paint51_linear_5_169" x1="129.28" y1="385.584" x2="4.22417" y2="268.838" gradientUnits="userSpaceOnUse">
<stop stop-color="#F9F9E0"/>
<stop offset="0.333333" stop-color="#FBF6EE"/>
<stop offset="0.666667" stop-color="#C1F2B0"/>
<stop offset="1" stop-color="#65B741"/>
</linearGradient>
<linearGradient id="paint52_linear_5_169" x1="694.88" y1="385.584" x2="569.8" y2="268.469" gradientUnits="userSpaceOnUse">
<stop stop-color="#F9F9E0"/>
<stop offset="0.333333" stop-color="#FBF6EE"/>
<stop offset="0.666667" stop-color="#C1F2B0"/>
<stop offset="1" stop-color="#65B741"/>
</linearGradient>
<linearGradient id="paint53_linear_5_169" x1="342.726" y1="503.696" x2="347.604" y2="652.049" gradientUnits="userSpaceOnUse">
<stop stop-color="#4ADE80"/>
<stop offset="0.243631" stop-color="#4ADE80"/>
<stop offset="0.720583" stop-color="#C1F2B0"/>
<stop offset="0.979167" stop-color="#65B741"/>
</linearGradient>
<linearGradient id="paint54_linear_5_169" x1="342.726" y1="1.80445" x2="347.604" y2="150.157" gradientUnits="userSpaceOnUse">
<stop stop-color="#FFF0D4"/>
<stop offset="0.243631" stop-color="#4ADE80"/>
<stop offset="0.720583" stop-color="#C1F2B0"/>
<stop offset="0.979167" stop-color="#65B741"/>
</linearGradient>
<linearGradient id="paint55_linear_5_169" x1="130.421" y1="113.502" x2="163.971" y2="144.57" gradientUnits="userSpaceOnUse">
<stop stop-color="#F9F9E0"/>
<stop offset="0.333333" stop-color="#FBF6EE"/>
<stop offset="0.666667" stop-color="#C1F2B0"/>
<stop offset="1" stop-color="#65B741"/>
</linearGradient>
<linearGradient id="paint56_linear_5_169" x1="527.905" y1="113.502" x2="561.454" y2="144.57" gradientUnits="userSpaceOnUse">
<stop stop-color="#F9F9E0"/>
<stop offset="0.333333" stop-color="#FBF6EE"/>
<stop offset="0.666667" stop-color="#C1F2B0"/>
<stop offset="1" stop-color="#65B741"/>
</linearGradient>
<linearGradient id="paint57_linear_5_169" x1="130.421" y1="511.598" x2="163.282" y2="542.711" gradientUnits="userSpaceOnUse">
<stop stop-color="#F9F9E0"/>
<stop offset="0.333333" stop-color="#FBF6EE"/>
<stop offset="0.666667" stop-color="#C1F2B0"/>
<stop offset="1" stop-color="#65B741"/>
</linearGradient>
<linearGradient id="paint58_linear_5_169" x1="526.704" y1="513.027" x2="560.043" y2="544.243" gradientUnits="userSpaceOnUse">
<stop stop-color="#F9F9E0"/>
<stop offset="0.333333" stop-color="#FBF6EE"/>
<stop offset="0.666667" stop-color="#C1F2B0"/>
<stop offset="1" stop-color="#65B741"/>
</linearGradient>
<linearGradient id="paint59_linear_5_169" x1="346.603" y1="332.992" x2="388.861" y2="295.103" gradientUnits="userSpaceOnUse">
<stop stop-color="#FFF0D4"/>
<stop offset="0.5" stop-color="#C1F2B0"/>
<stop offset="1" stop-color="#65B741"/>
</linearGradient>
<clipPath id="clip0_5_169">
<rect x="16" width="660" height="660" fill="white"/>
</clipPath>
</defs>
</svg>
