<svg width="49" height="79" viewBox="0 0 49 79" fill="none" xmlns="http://www.w3.org/2000/svg">
<path d="M43.525 2H5.775L2 9.55M43.525 2L47.3 9.55L32.2 39.75M43.525 2L28.425 32.2M2 9.55H32.2L24.65 24.65L20.875 17.1M2 9.55L20.875 47.3L5.775 77.5M2 9.55L28.425 62.4H20.875H35.975L13.325 17.1M20.875 17.1L35.975 47.3M20.875 17.1L47.3 69.95M28.425 17.1H13.325M13.325 17.1L28.425 47.3M47.3 69.95L43.525 77.5H5.775M47.3 69.95H17.1L24.65 54.85M5.775 77.5L2 69.95L17.1 39.75" stroke="url(#paint0_linear_43_9)" stroke-width="3" stroke-linecap="round" stroke-linejoin="round"/>
<defs>
<linearGradient id="paint0_linear_43_9" x1="24.65" y1="2" x2="24.65" y2="77.5" gradientUnits="userSpaceOnUse">
<stop offset="0.447917" stop-color="#12FF80"/>
<stop offset="1" stop-color="#004922"/>
</linearGradient>
</defs>
</svg>
