<svg width="1182" height="254" viewBox="0 0 1182 254" fill="none" xmlns="http://www.w3.org/2000/svg">
<path fill-rule="evenodd" clip-rule="evenodd" d="M157.5 128.5H0L25 152H137.384L157.5 128.5Z" fill="white"/>
<path d="M50.5 253.5H157.5L67.62 233.5L50.5 253.5Z" fill="white"/>
<path d="M0 253.5H50.5L67.62 233.5L157.5 128.5L137.384 152L0 253.5Z" fill="white"/>
<path fill-rule="evenodd" clip-rule="evenodd" d="M445 0H380.5L315.942 99.9022L232 0H167.5L287.901 143.294L219 253.5L300.718 158.548L380.5 253.5H445L334.254 121.696L445 0ZM334.254 121.696L315.942 99.9022L287.901 143.294L300.718 158.548L334.254 121.696Z" fill="white"/>
<path fill-rule="evenodd" clip-rule="evenodd" d="M455 1.5H616.5C647 1.5 678 26.5 678 62V196C678 218.5 647.5 253.5 616.5 253.5H455V1.5ZM627.5 182C627.167 175.5 626.7 133.7 627.5 18.5L505 78V241L627.5 182Z" fill="white"/>
<path d="M857 1.5L866.5 24L760.5 74.5V239L885.5 178V79L944.5 253.5H688L774.5 1.5H857Z" fill="white"/>
<path fill-rule="evenodd" clip-rule="evenodd" d="M1008.5 1.50024H1126.5C1142.5 1.50024 1182 36 1182 61V196.5C1182 209.5 1161 253.5 1116.5 253.5H1007C998.5 253.5 954.5 230.5 954.5 196.5V61C954.5 35 990 1.50024 1008.5 1.50024ZM1130.5 11.5L1006.5 72L1007 236.5L1130.5 175.5V11.5Z" fill="white"/>
</svg>
